<svg viewBox="0 0 24 24" xmlns="http://www.w3.org/2000/svg"><path d="M18.7132565,4.30888633 C19.0955812,4.72073478 19.0955812,5.38847303 18.7132565,5.80032148 L14.7972417,11.2542824 C14.414917,11.6661309 14.414917,12.3338691 14.7972417,12.7457176 L18.7132565,18.1996785 C19.0955812,18.611527 19.0955812,19.2792652 18.7132565,19.6911137 C18.3309317,20.1029621 17.7110609,20.1029621 17.3287362,19.6911137 L11.5734871,13.4914351 C10.8088376,12.6677383 10.8088376,11.3322617 11.5734871,10.5085649 L17.3287362,4.30888633 C17.7110609,3.89703789 18.3309317,3.89703789 18.7132565,4.30888633 Z M11.7132565,4.30888633 C12.0955812,4.72073478 12.0955812,5.38847303 11.7132565,5.80032148 L7.7972417,11.2542824 C7.41491697,11.6661309 7.41491697,12.3338691 7.7972417,12.7457176 L11.7132565,18.1996785 C12.0955812,18.611527 12.0955812,19.2792652 11.7132565,19.6911137 C11.3309317,20.1029621 10.7110609,20.1029621 10.3287362,19.6911137 L4.57348708,13.4914351 C3.80883764,12.6677383 3.80883764,11.3322617 4.57348708,10.5085649 L10.3287362,4.30888633 C10.7110609,3.89703789 11.3309317,3.89703789 11.7132565,4.30888633 Z" transform="matrix(-1 0 0 1 23 0)" fill-rule="evenodd"/></svg>