<svg xmlns="http://www.w3.org/2000/svg" viewBox="0 0 24 24">
  <path fill-rule="evenodd" d="M7.23223305,12.3033009 C7.63663419,11.8988997 8.292298,11.8988997 8.69669914,12.3033009 C9.10110029,12.707702 9.10110029,13.3633658 8.69669914,13.767767 L8.69669914,13.767767 L7.464,15 L19,15 C19.5522847,15 20,15.4477153 20,16 C20,16.5522847 19.5522847,17 19,17 L7.464,17 L8.69669914,18.232233 C9.10110029,18.6366342 9.10110029,19.292298 8.69669914,19.6966991 C8.292298,20.1011003 7.63663419,20.1011003 7.23223305,19.6966991 L4.30330086,16.767767 C4.11665418,16.5811203 4.01615212,16.3409502 4.00179468,16.0966629 L4.0001833,16.0193409 C4.00006128,16.0129086 4,16.0064615 4,16 L4.001,15.981 L4.00179468,15.9033371 C4.01375921,15.6997644 4.0855464,15.4990508 4.21715624,15.3297879 L4.30330086,15.232233 Z M16.767767,4.30330086 L19.6966991,7.23223305 C19.8833458,7.41887973 19.9838479,7.65904982 19.9982053,7.90333709 L19.998,7.967 L20,8 C20,8.01122253 19.9998151,8.02240189 19.9994483,8.03353519 L19.9982053,8.09666291 C19.9838479,8.34095018 19.8833458,8.58112027 19.6966991,8.76776695 L19.6966991,8.76776695 L16.767767,11.6966991 C16.3633658,12.1011003 15.707702,12.1011003 15.3033009,11.6966991 C14.8988997,11.292298 14.8988997,10.6366342 15.3033009,10.232233 L15.3033009,10.232233 L16.536,9 L5,9 C4.48716416,9 4.06449284,8.61395981 4.00672773,8.11662113 L4,8 C4,7.44771525 4.44771525,7 5,7 L5,7 L16.536,7 L15.3033009,5.76776695 C14.8988997,5.36336581 14.8988997,4.707702 15.3033009,4.30330086 C15.707702,3.89889971 16.3633658,3.89889971 16.767767,4.30330086 Z" transform="matrix(-1 0 0 1 24 0)"/>
</svg>
