<svg viewBox="0 0 24 24" xmlns="http://www.w3.org/2000/svg"><path d="M19.7132565,4.30888633 C20.0955812,4.72073478 20.0955812,5.38847303 19.7132565,5.80032148 L15.7972417,11.2542824 C15.414917,11.6661309 15.414917,12.3338691 15.7972417,12.7457176 L19.7132565,18.1996785 C20.0955812,18.611527 20.0955812,19.2792652 19.7132565,19.6911137 C19.3309317,20.1029621 18.7110609,20.1029621 18.3287362,19.6911137 L12.5734871,13.4914351 C11.8088376,12.6677383 11.8088376,11.3322617 12.5734871,10.5085649 L18.3287362,4.30888633 C18.7110609,3.89703789 19.3309317,3.89703789 19.7132565,4.30888633 Z M12.7132565,4.30888633 C13.0955812,4.72073478 13.0955812,5.38847303 12.7132565,5.80032148 L8.7972417,11.2542824 C8.41491697,11.6661309 8.41491697,12.3338691 8.7972417,12.7457176 L12.7132565,18.1996785 C13.0955812,18.611527 13.0955812,19.2792652 12.7132565,19.6911137 C12.3309317,20.1029621 11.7110609,20.1029621 11.3287362,19.6911137 L5.57348708,13.4914351 C4.80883764,12.6677383 4.80883764,11.3322617 5.57348708,10.5085649 L11.3287362,4.30888633 C11.7110609,3.89703789 12.3309317,3.89703789 12.7132565,4.30888633 Z" fill-rule="evenodd"/></svg>