<svg xmlns="http://www.w3.org/2000/svg" viewBox="0 0 24 24">
  <path fill-rule="evenodd" d="M7.35024111,14.2150577 L11.4407118,17.1520687 C11.7495982,17.4388123 12.2504018,17.4388123 12.5592882,17.1520687 L16.6497589,14.2150577 C16.9586452,13.9283141 17.4594489,13.9283141 17.7683353,14.2150577 C18.0772216,14.5018012 18.0772216,14.9667043 17.7683353,15.2534479 L13.1185764,19.5698847 C12.5008037,20.1433718 11.4991963,20.1433718 10.8814236,19.5698847 L6.23166475,15.2534479 C5.92277842,14.9667043 5.92277842,14.5018012 6.23166475,14.2150577 C6.54055108,13.9283141 7.04135478,13.9283141 7.35024111,14.2150577 Z M13.1185764,4.43011531 L17.7683353,8.74655212 C18.0772216,9.03329566 18.0772216,9.4981988 17.7683353,9.78494234 C17.4594489,10.0716859 16.9586452,10.0716859 16.6497589,9.78494234 L12.5592882,6.84793127 C12.2504018,6.56118773 11.7495982,6.56118773 11.4407118,6.84793127 L7.35024111,9.78494234 C7.04135478,10.0716859 6.54055108,10.0716859 6.23166475,9.78494234 C5.92277842,9.4981988 5.92277842,9.03329566 6.23166475,8.74655212 L10.8814236,4.43011531 C11.4991963,3.85662823 12.5008037,3.85662823 13.1185764,4.43011531 Z"/>
</svg>
