<svg xmlns="http://www.w3.org/2000/svg" viewBox="0 0 24 24">
  <path fill-rule="evenodd" d="M17.234375,10.6872693 C17.234375,10.5924661 17.1596436,10.515625 17.0674432,10.515625 C16.6208756,10.515625 16.18233,10.887919 15.6272277,11.3592489 C14.740109,12.112438 13.6360792,13.0498341 11.9219278,13.0498341 C10.2077763,13.0498341 9.103641,12.112438 8.21657507,11.3592489 C7.66144638,10.887919 7.22295356,10.515625 6.77630679,10.515625 C6.68413279,10.515625 6.609375,10.5924661 6.609375,10.6872693 C6.609375,10.7820725 6.68413279,10.8589136 6.77630679,10.8589136 C7.10296639,10.8589136 7.5204542,11.2134354 8.00399168,11.6239328 C8.88337864,12.3705828 10.0877364,14.1875 11.9219278,14.1875 C14.1124391,14.1875 14.6039986,12.6731989 15.8398111,11.6239328 C16.3233486,11.2134354 16.7408364,10.8589136 17.0674432,10.8589136 C17.1596436,10.8589136 17.234375,10.7820725 17.234375,10.6872693 M6.6709813,7.58833906 C6.6709813,8.6269668 7.496855,9.47191392 8.5120012,9.47191392 C9.5271474,9.47191392 10.3530211,8.6269668 10.3530211,7.58833906 C10.3530211,6.54971133 9.5271474,5.70473419 8.5120012,5.70473419 C7.496855,5.70473419 6.6709813,6.54971133 6.6709813,7.58833906 M13.537465,7.58833906 C13.537465,8.6269668 14.3633093,9.47191392 15.3784555,9.47191392 C16.3936017,9.47191392 17.2194461,8.6269668 17.2194461,7.58833906 C17.2194461,6.54971133 16.3936017,5.70473419 15.3784555,5.70473419 C14.3633093,5.70473419 13.537465,6.54971133 13.537465,7.58833906 M20.9232008,18.510293 C20.6715124,18.4522879 20.4112261,18.4231052 20.1452175,18.4231052 C19.0009552,18.4231052 18.0202595,18.9674886 17.625575,19.734375 C17.2308611,18.9674886 16.2501948,18.4231052 15.1060205,18.4231052 C14.8398945,18.4231052 14.5795201,18.4522879 14.3279197,18.510293 C14.7152975,17.8586663 15.4470925,17.355595 16.3372601,17.1054105 C16.4582478,17.0714541 16.5820819,17.0420612 16.7085277,17.0176222 L16.7085277,16.632933 L16.7085277,14.6582673 C16.7085277,14.5533657 16.6254238,14.4683396 16.5228939,14.4683396 C16.420364,14.4683396 16.3372601,14.5533657 16.3372601,14.6582673 L16.3372601,16.7141462 C15.585951,16.9099585 14.928075,17.2729408 14.4523407,17.7513328 C13.6503242,17.8617587 12.7969253,17.9363367 11.9452577,17.9363367 C11.0937955,17.9363367 10.2403966,17.8618487 9.43843875,17.751543 C8.96264582,17.2731509 8.30465244,16.9099585 7.55316723,16.7141462 L7.55316723,14.6582673 C7.55316723,14.5533657 7.47009274,14.4683396 7.3675628,14.4683396 C7.26500351,14.4683396 7.18192902,14.5533657 7.18192902,14.6582673 L7.18192902,16.632933 L7.18192902,17.0176222 C7.30828676,17.0420612 7.4322089,17.0714541 7.55316723,17.1054105 C8.44336424,17.355595 9.17512989,17.8586663 9.56250761,18.510293 C9.31084854,18.4522879 9.05056217,18.4231052 8.78446557,18.4231052 C7.64011521,18.4231052 6.65953691,18.9674886 6.26488173,19.734375 C5.87022655,18.9674886 4.88961892,18.4231052 3.74523921,18.4231052 C3.4792013,18.4231052 3.21882689,18.4522879 2.96719717,18.510293 C3.35718656,17.8542829 4.09646442,17.3497105 4.99458446,17.1012072 C5.08297032,17.0767982 5.1730875,17.0552715 5.26437847,17.0358163 L5.26437847,16.6486052 L5.26437847,7.58833906 C5.26437847,5.75619421 6.7212779,4.265625 8.5120012,4.265625 C10.3027538,4.265625 10.6548887,5.26089902 11.7595946,6.82088222 C11.8197803,6.90581827 11.8426984,7.0107799 11.9452577,7.0107799 C12.0477876,7.0107799 12.0716448,6.90647878 12.1308915,6.82088222 C13.2698424,5.17413154 13.5877322,4.265625 15.3784555,4.265625 C17.1691788,4.265625 18.6260489,5.75619421 18.6260489,7.58833906 L18.6260489,16.6486052 L18.6260489,17.0352759 C18.7136131,17.0538303 18.7994753,17.0753571 18.8843105,17.0985651 C19.7876539,17.3458975 20.5316562,17.8516108 20.9232008,18.510293 M8.06851665,7.58830904 C8.06851665,7.83888391 8.26709138,8.04205192 8.5120012,8.04205192 C8.75688167,8.04205192 8.9554564,7.83888391 8.9554564,7.58830904 C8.9554564,7.33776419 8.75688167,7.13459619 8.5120012,7.13459619 C8.26709138,7.13459619 8.06851665,7.33776419 8.06851665,7.58830904 M7.38117868,7.58830904 C7.38117868,6.95037292 7.88848768,6.43135928 8.5120012,6.43135928 C9.13554406,6.43135928 9.64282371,6.95037292 9.64282371,7.58830904 C9.64282371,8.22624516 9.13554406,8.74528882 8.5120012,8.74528882 C7.88848768,8.74528882 7.38117868,8.22624516 7.38117868,7.58830904 M14.934971,7.58830904 C14.934971,7.83888391 15.1335457,8.04205192 15.3784555,8.04205192 C15.623336,8.04205192 15.8219401,7.83888391 15.8219401,7.58830904 C15.8219401,7.33776419 15.623336,7.13459619 15.3784555,7.13459619 C15.1335457,7.13459619 14.934971,7.33776419 14.934971,7.58830904 M14.2476623,7.58830904 C14.2476623,6.95037292 14.7549713,6.43135928 15.3784555,6.43135928 C16.001969,6.43135928 16.5092193,6.95037292 16.5092193,7.58830904 C16.5092193,8.22624516 16.001969,8.74528882 15.3784555,8.74528882 C14.7549713,8.74528882 14.2476623,8.22624516 14.2476623,7.58830904 M14.7281504,18.003649 C14.6098331,18.1210703 14.5039285,18.2459675 14.4129897,18.3781903 C14.5522003,18.2896815 14.6632402,18.15926 14.7281504,18.003649 M19.6458315,16.832168 C19.6056001,16.8769028 19.5658382,16.9236791 19.5252253,16.9666425 C20.2212199,17.2543263 20.8132174,17.6751335 21.2359553,18.1894335 C21.49542,18.2044152 21.7506298,18.2331775 22,18.2768315 C21.5158732,17.6570595 20.6785551,17.1542585 19.6458315,16.832168 M4.89311092,16.7437492 L4.89311092,10.8115558 C4.50253464,10.5756923 4.11392444,10.4439799 3.75844427,10.4439799 C3.61254304,10.4439799 3.47468223,10.4674882 3.34864729,10.5138442 C2.30078189,10.899374 2.20781827,12.8122517 3.14564152,14.6908427 C3.57151933,15.5438961 4.14725988,16.2743041 4.75213959,16.7788165 C4.79873877,16.7665669 4.84574878,16.7548578 4.89311092,16.7437492 M20.7447858,14.6908427 C21.6826678,12.8122517 21.5896748,10.899374 20.5418388,10.5138442 C20.4157745,10.4674882 20.277855,10.4439499 20.1319537,10.4439499 C19.7765323,10.4439499 19.3878634,10.5762628 18.9973164,10.8121262 L18.9973164,16.7436591 C19.0445612,16.7547978 19.0913365,16.7664769 19.1378476,16.7786363 C19.7429034,16.2743041 20.3187907,15.5441363 20.7447858,14.6908427 M2.81924182,18.0352036 C2.54123133,18.049915 2.26753448,18.0759753 2,18.1152158 C2.49929793,17.5790288 3.33379893,17.1358241 4.36531941,16.832168 C3.73690535,17.1342629 3.20403723,17.5448922 2.81924182,18.0352036"/>
</svg>
