<svg xmlns="http://www.w3.org/2000/svg" viewBox="0 0 24 24">
  <path fill-rule="evenodd" d="M16,3 C17.1045695,3 18,3.8954305 18,5 L18,19 C18,20.1045695 17.1045695,21 16,21 L8,21 C6.8954305,21 6,20.1045695 6,19 L6,5 C6,3.8954305 6.8954305,3 8,3 L16,3 Z M15,5 L9,5 C8.44771525,5 8,5.44771525 8,6 L8,6 L8,18 C8,18.5522847 8.44771525,19 9,19 L9,19 L15,19 C15.5522847,19 16,18.5522847 16,18 L16,18 L16,6 C16,5.44771525 15.5522847,5 15,5 L15,5 Z M14,16 C14.5522847,16 15,16.4477153 15,17 C15,17.5522847 14.5522847,18 14,18 L10,18 C9.44771525,18 9,17.5522847 9,17 C9,16.4477153 9.44771525,16 10,16 L14,16 Z"/>
</svg>
