<svg xmlns="http://www.w3.org/2000/svg" viewBox="0 0 24 24"><path fill-rule="evenodd" d="M13,3 C14.1045695,3 15,3.8954305 15,5 L15,9 L19,9 C20.1045695,9 21,9.8954305 21,11 L21,19 C21,20.1045695 20.1045695,21 19,21 L5,21 C3.8954305,21 3,20.1045695 3,19 L3,5 C3,3.8954305 3.8954305,3 5,3 L13,3 Z M13,11 L5,11 L5,18 C5,18.5128358 5.38604019,18.9355072 5.88337887,18.9932723 L6,19 L13,19 L13,11 Z M18,11 L15,11 L15,19 L18,19 C18.5128358,19 18.9355072,18.6139598 18.9932723,18.1166211 L19,18 L19,12 C19,11.4477153 18.5522847,11 18,11 Z M12,5 L6,5 C5.48716416,5 5.06449284,5.38604019 5.00672773,5.88337887 L5,6 L5,9 L5,9 L13,9 L13,6 C13,5.44771525 12.5522847,5 12,5 Z"/></svg>