<svg xmlns="http://www.w3.org/2000/svg" viewBox="0 0 24 24">
  <path fill-rule="evenodd" d="M20,3 C21.1045695,3 22,3.8954305 22,5 L22,15 C22,16.1045695 21.1045695,17 20,17 L13,17 L13,19 L17,19 C17.5522847,19 18,19.4477153 18,20 C18,20.5522847 17.5522847,21 17,21 L7,21 C6.44771525,21 6,20.5522847 6,20 C6,19.4477153 6.44771525,19 7,19 L11,19 L11,17 L4,17 C2.8954305,17 2,16.1045695 2,15 L2,5 C2,3.8954305 2.8954305,3 4,3 L20,3 Z M19,5 L5,5 C4.44771525,5 4,5.44771525 4,6 L4,6 L4,14 C4,14.5522847 4.44771525,15 5,15 L5,15 L19,15 C19.5522847,15 20,14.5522847 20,14 L20,14 L20,6 C20,5.44771525 19.5522847,5 19,5 L19,5 Z"/>
</svg>
