<svg xmlns="http://www.w3.org/2000/svg" viewBox="0 0 24 24">
  <path fill-rule="evenodd" d="M18,2 C19.1045695,2 20,2.8954305 20,4 L20,20 C20,21.1045695 19.1045695,22 18,22 L6,22 C4.8954305,22 4,21.1045695 4,20 L4,4 C4,2.8954305 4.8954305,2 6,2 L18,2 Z M18,18 L6,18 L6,19 C6,19.5128358 6.38604019,19.9355072 6.88337887,19.9932723 L7,20 L17,20 C17.5522847,20 18,19.5522847 18,19 L18,19 L18,18 Z M17,4 L7,4 C6.44771525,4 6,4.44771525 6,5 L6,5 L6,16 L18,16 L18,5 C18,4.48716416 17.6139598,4.06449284 17.1166211,4.00672773 L17,4 Z"/>
</svg>
