<svg xmlns="http://www.w3.org/2000/svg" viewBox="0 0 466 459">
    <path fill-rule="evenodd"
        d="M198.095 103.635C139.577 12.1 270.51-23 291.195 16.772c-44.394 13.326-53.632 46.654-33.741 44.372 27.124-3.112 17.159-31.046 59.167-44.372 28.64-9.086 48.213 16.138 68.368 41.526l1.423 1.792c3.088 3.88 6.194 7.747 9.354 11.476-136.172-7.64-123.84 27.488-103.446 27.488 20.395 0 79.081-27.488 119.624-18.297 28.27 14.589 4.478 46.95 34.973 70.465l-.003-.003-.515-.36c-17.36-11.885-78.607-28.778-121.474-24.031l-1.307.152c-43.353 5.297-35.209 24.242-11.272 24.242 23.937 0 118.262-6.68 137.926 14.596 14.157 15.319 14.437 31.844 14.656 48.894l.018 1.422.02 1.424.023 1.426.029 1.43c.104 4.765.322 9.565.95 14.386-14.462-26-82.286-46.088-131.257-50.37-48.97-4.281-50.737 13.583 9.31 13.583 60.05 0 113.4 43.945 119.69 52.828 6.29 8.882-6.614 38.542-6.29 63.81-7.604-16.243-64.531-58.897-113.4-77.105-48.867-18.208-37.79 23.507-3.307 18.208 34.483-5.299 111.49 58.898 116.706 75.142 5.218 16.244-5.217 35.146-17.206 43.87-3.057-30.145-93.122-89.248-105.503-70.726-12.38 18.521 87.274 35.047 93.952 81.08 2.315 15.957-13.044 20.545-16.719 27.336-6.926 12.8 0 30.484-7.602 30.484-3.825-7.337-15.46-4.911-27.02-2.173l-1.89.45c-8.805 2.095-17.315 4.072-22.02 1.723-11.202-5.594-26.323-86.128-41.066-76.507-14.743 9.62.922 46.81 28.368 89.847-8.712.264-22.648 3.987-28.368 0-47.334-32.988-34.082-118.699-41.836-141.628-9.76-28.86-21.51 87.034 21.81 141.628-9.316-3.58-42.588 2.739-61.32-13.34-23.165-19.885-25.13-79.698-19.51-120.615 5.228-38.063 17.925-58.568 2.83-46.47-31.32 25.105-20.8 109.792-2.83 153.885-8.826 0-67.232-4.184-79.889-39.583-12.657-35.398 22.343-114.038 37.833-129.104 15.49-15.066 6.472-26.65-7.777-19.095-14.25 7.555-62.382 99.566-41.113 143.161-14.794-10.116-65.696-54.224-65.696-76.817 0-22.592 106.81-113.607 84.73-113.607-12.525 0-29.656 19.177-50.966 43.543-16.258 18.589-38.218 38.359-43.098 65.802-12.578-5.932-56.526-51.234-32.626-82.933 23.9-31.698 98.796-44.805 98.796-64.107s-83.72 8.818-106.495 52.5c-15.175-45.313 7.419-80.888 22.775-90.214 15.356-9.325 83.72 9.326 83.72-4.166 0-13.491-48.911-19.347-80.926-8.914 0-23.758 65.81-38.013 89.786-38.013s48.269 9.378 55.362 38.013c7.094 28.635 40.541 26.135 22.189-2.571Zm25.568 134.603c-2.455 6.746.182 13.9 5.89 15.978 5.71 2.078 12.328-1.707 14.784-8.454 2.455-6.746-.182-13.9-5.89-15.978-5.71-2.078-12.328 1.707-14.784 8.454Zm-25.162-55.963c-9.52 7.988-13.207 19.265-8.237 25.188 4.97 5.923 16.716 4.25 26.235-3.738 9.52-7.988 13.207-19.265 8.237-25.188-4.97-5.923-16.716-4.25-26.235 3.738Zm-31.237-34.123c-9.247 1.63-15.965 7.361-15.006 12.8.96 5.439 9.232 8.526 18.478 6.896 9.247-1.63 15.965-7.361 15.006-12.8-.96-5.439-9.232-8.526-18.478-6.896ZM244 140.34c-6.218 3.59-9.02 10.377-6.258 15.16 2.761 4.783 10.04 5.75 16.258 2.16s9.02-10.377 6.258-15.16c-2.761-4.783-10.04-5.75-16.258-2.16Z" />
</svg>