<svg xmlns="http://www.w3.org/2000/svg" viewBox="0 0 557 770">
    <path fill-rule="evenodd"
        d="m173.394.755 27.16 42.07 37.655 75.305 13.674 58.53 4.188 98.075.503.516 25.25-88.44 25.725-65.502 25.797-43.64 42.518-46.103 3.11-1.919 1.357 1.07-6.34 11.525-9.78 21.702-18.082 30.69-.462 1.106-33.692 101.956-20.022 47.921-30.29 60.244-2.003 21.362 124.449-212.99 31.47-33.313 6.291-2.088.506 6.37-47.711 95.573-56.892 91.638-43.84 50.331-12.947 24.68 3.046 20.655 4.493-4.972 14.503-22.354L459.965 133.23l2.834-.896-1.531 4.418-57.503 99.913-59.749 77.522-74.101 59.863-3.185 3.807 4.363 25.371L436.748 249.22l64.075-50.698-1.954 5.615-40.924 59.563-23.644 26.788-35.809 34.35-73.42 57.219-44.7 27.628-5.763 8.007 2.166 11.656 4.998 1.416 168.307-121.86 78.99-46.118 6.12-2.836-21.308 30.996-90.629 76.568-87.272 55.29-46.546 18.456-8.42 11.693-.08 8.962 2.28 14.846 21.926-19.59 104.535-69.384 120.9-58.7 17.915-6.8 6.13.466-2.232 5.6-19.074 17.311-47.982 35.499-63.134 36.336-125.1 58.846-9.632 20.744 6.885-2.512 126.473-58.068 77.356-28.409 50.78-13.001 7.223.527.542 1.615-12.781 11.282-114.6 64.003-91.965 25.479-43.587 6.366-4.85 2.854 2.918 7.298 5.375 2.292 195.766-20.007 36.756 4.356 4.458 3.182-3.518 4.373-60.307 14.834-69.463 6.781-56.15.608-52.545-4.491-.874 1.518 3.254 3.465 66.13 20.726 85.305 42.51 4.643 3.588-.835 1.607-82.646-16.673-75.063-41.751-.048 6.767 6.183 88.497-1.138 9.37 1.95 94.203-1.587 24.395-2.169 3.772-12.77 1.31-2.673-23.147 5.51-106.937-2.545-87.617-2.62-20.025.041-9.699-6.907 2.795-65.287 47.015-43.661 26.988-41.504 11.88-11.7 1.357-1.606-1.782 58.975-45.36 44.049-27.22 57.782-22.12 2.969-.337 5.962-4.595-5.306-9.17-12.817.972-49.549 15.662-70.319 12.178-78.937 1.322-26.648-3.292-.803-.892 18.448-10.452 61.038-15.993 74.759-11.811 87.896 1.738-2.212-15.104-67.791-3.231-64.541-8.512-58.142-12.115-76.578-9.508-6.941-1.431-.184-2.205 18.787-6.271 83.907-4.878 44.65 2.527 66.344 15.138 60.62 20.894-8.174-32.117-5.894-4.413-44.103-3.45-54.54-9.611-132.008-35.398-28.42-10.07.295-1.852 4.26-1.527 88.89.7 51.106 8.966 54.672 17.085 62.792 27.542-2.708-19.71-3.91-14.87-5.138-3.484-15.215-1.457-79.586-33.233L27.36 312.614l-3.791-3.212 4.011-2.987 11.878-1.066 91.496 10.888 76.83 25.618 48.837 30.881-2.86-26.613-7.325-12.115-81.068-44.27-119.194-50.23-16.6-10.231.622-1.658 5.082-.61 53.503 5.948 87.132 35.574 69.113 51.1 4.605 2.7 2.002-2.3L66.361 140.89l.612-1.65 6.456.52 25.434 13.168 40.912 25.874 48.918 45.563 26.17 29.38 12.223 16.101.338-.387L112 70.516l10.603 5.252 37.525 41.618 37.967 56.436 39.104 81.812 7.017 21.54-.26-7.815-70.839-257.662-1.857-10.026z" />
</svg>