<svg xmlns="http://www.w3.org/2000/svg" viewBox="0 0 24 24">
  <path fill-rule="evenodd" d="M15,4.18046042 C15.5128358,4.18046042 15.9355072,4.56650061 15.9932723,5.0638393 L16,5.18046042 L16,18.8195396 C16,18.8746204 15.9954492,18.9296071 15.9863939,18.9839386 C15.9020842,19.4897967 15.4518098,19.8432525 14.9517414,19.8184697 L14.835601,19.8059335 L4.83560101,18.1392668 C4.39359537,18.0655992 4.05979644,17.7089047 4.00723277,17.2734366 L4,17.1528729 L4,6.84712709 C4,6.39902453 4.29696513,6.01112707 4.71786683,5.88768807 L4.83560101,5.86073316 L14.835601,4.1940665 C14.8899324,4.18501126 14.9449191,4.18046042 15,4.18046042 Z M19,7 C19.5522847,7 20,7.44771525 20,8 L20,8 L20,16 C20,16.5522847 19.5522847,17 19,17 L19,17 L18,17 C17.4477153,17 17,16.5522847 17,16 L17,16 L17,8 C17,7.44771525 17.4477153,7 18,7 L18,7 Z M13.2853417,7.2136153 L11.2068076,7.43797368 L9.96361036,10.4139042 L8.76894064,7.70111868 L6.64281082,7.93061457 L8.81746812,11.7264283 L6.5,16.0539703 L8.57853417,16.2783287 L9.9645422,13.0493581 L11.3738702,16.5800592 L13.5,16.8095551 L11.1106605,11.631495 L13.2853417,7.2136153 Z"/>
</svg>
