<svg xmlns="http://www.w3.org/2000/svg" viewBox="0 0 24 24">
  <path fill-rule="evenodd" d="M17,13 C19.209139,13 21,14.790861 21,17 C21,19.209139 19.209139,21 17,21 C14.790861,21 13,19.209139 13,17 C13,14.790861 14.790861,13 17,13 Z M17,15 C15.8954305,15 15,15.8954305 15,17 C15,18.1045695 15.8954305,19 17,19 C18.1045695,19 19,18.1045695 19,17 C19,15.8954305 18.1045695,15 17,15 Z M18.363961,5.63603897 C18.7544853,6.02656326 18.7544853,6.65972824 18.363961,7.05025253 L7.05025253,18.363961 C6.65972824,18.7544853 6.02656326,18.7544853 5.63603897,18.363961 C5.24551468,17.9734367 5.24551468,17.3402718 5.63603897,16.9497475 L16.9497475,5.63603897 C17.3402718,5.24551468 17.9734367,5.24551468 18.363961,5.63603897 Z M7,3 C9.209139,3 11,4.790861 11,7 C11,9.209139 9.209139,11 7,11 C4.790861,11 3,9.209139 3,7 C3,4.790861 4.790861,3 7,3 Z M7,5 C5.8954305,5 5,5.8954305 5,7 C5,8.1045695 5.8954305,9 7,9 C8.1045695,9 9,8.1045695 9,7 C9,5.8954305 8.1045695,5 7,5 Z"/>
</svg>
