<svg xmlns="http://www.w3.org/2000/svg" viewBox="0 0 24 24">
  <path fill-rule="evenodd" d="M16.1412753,4.01033183 C16.6881553,4.08845663 17.0681553,4.59407581 16.9900273,5.14157979 L16.55,8 L19.1333334,8.00033168 C19.612704,8.00033168 19.9999999,8.44845966 19.9999999,9.00033168 C19.9999999,9.55220362 19.612704,10.0003317 19.1333334,10.0003317 L16.242,10 L15.934,12 L18.1333334,12.0003315 C18.6127041,12.0003315 19,12.4472114 19,13.0003315 C19,13.5534514 18.6127041,14.0003315 18.1333334,14.0003315 L15.627,14 L14.9900274,18.1415793 C14.9187778,18.6415792 14.4912754,19.0003312 14.0012754,19.0003312 L13.8581554,18.9903312 C13.3112755,18.9122064 12.9318995,18.4053392 13.0094035,17.8584593 L13.603,14 L11.627,14 L10.9900276,18.1422033 C10.9181524,18.6409552 10.4912756,19.0003312 10.0012757,19.0003312 L9.85815566,18.9903312 C9.31189968,18.9122064 8.9318997,18.4053392 9.0100277,17.8584593 L9.604,14 L6.86666661,14.0003315 C6.38837756,14.0003315 6,13.5534514 6,13.0003315 C6,12.4472114 6.38837756,12.0003315 6.86666661,12.0003315 L9.911,12 L10.219,10 L7.86666712,10.0003317 C7.38837752,10.0003317 6.99999993,9.55220362 6.99999993,9.00033168 C6.99999993,8.44845966 7.38837752,8.00033168 7.86666712,8.00033168 L10.527,8 L11.0100276,4.8584598 C11.0881524,4.31157982 11.5900276,3.93157983 12.1418996,4.01033183 C12.6881556,4.08845663 13.0681555,4.59532381 12.9900275,5.14220379 L12.55,8 L14.526,8 L15.0094034,4.8584598 C15.0875282,4.31220382 15.5975314,3.93220383 16.1412753,4.01033183 Z M5.5,16 C6.32842712,16 7,16.6715729 7,17.5 C7,18.3284271 6.32842712,19 5.5,19 C4.67157288,19 4,18.3284271 4,17.5 C4,16.6715729 4.67157288,16 5.5,16 Z M14.218,10 L12.243,10 L11.935,12 L13.91,12 L14.218,10 Z"/>
</svg>
