<svg xmlns="http://www.w3.org/2000/svg" viewBox="0 0 24 24">
  <path fill-rule="evenodd" d="M16.1412753,4.01033183 C16.6881553,4.08845663 17.0681553,4.59407581 16.9900273,5.14157979 L16.582,8 L18.9999999,8.00033168 C19.55312,8.00033168 19.9999999,8.44845966 19.9999999,9.00033168 C19.9999999,9.55220362 19.55312,10.0003317 18.9999999,10.0003317 L16.296,10 L15.725,14 L18,14.0003315 C18.5531201,14.0003315 19,14.4472114 19,15.0003315 C19,15.5534514 18.5531201,16.0003315 18,16.0003315 L15.439,16 L14.9900274,19.1415793 C14.9187778,19.6415792 14.4912754,20.0003312 14.0012754,20.0003312 L13.8581554,19.9903312 C13.3112755,19.9122064 12.9318995,19.4053392 13.0094035,18.8584593 L13.417,16 L9.439,16 L8.99002762,19.1422033 C8.91815242,19.6409552 8.49127564,20.0003312 8.00127566,20.0003312 L7.85815566,19.9903312 C7.31189968,19.9122064 6.9318997,19.4053392 7.0100277,18.8584593 L7.418,16 L5,16.0003315 C4.44812795,16.0003315 4,15.5534514 4,15.0003315 C4,14.4472114 4.44812795,14.0003315 5,14.0003315 L7.704,14 L8.275,10 L5.99999993,10.0003317 C5.44812792,10.0003317 4.99999993,9.55220362 4.99999993,9.00033168 C4.99999993,8.44845966 5.44812792,8.00033168 5.99999993,8.00033168 L8.561,8 L9.01002762,4.8584598 C9.08815242,4.31157982 9.5900276,3.93157983 10.1418996,4.01033183 C10.6881556,4.08845663 11.0681555,4.59532381 10.9900275,5.14220379 L10.582,8 L14.56,8 L15.0094034,4.8584598 C15.0875282,4.31220382 15.5975314,3.93220383 16.1412753,4.01033183 Z M14.274,10 L10.296,10 L9.725,14 L13.703,14 L14.274,10 Z"/>
</svg>
