<svg xmlns="http://www.w3.org/2000/svg" viewBox="0 0 24 24">
  <path fill-rule="evenodd" d="M5.5,14.2435215 C5.85466632,14.8061148 6.38478594,15.2842305 7.04742236,15.6763546 C6.38798751,15.9465851 6,16.2518562 6,16.5 C6,17.0890452 8.1862915,18 11,18 C13.4402502,18 15.4085821,17.3148158 15.8880989,16.7486789 C16.6421134,16.6090215 17.3446421,16.4114821 17.972744,16.1568696 C17.9907819,16.2687524 18,16.3831543 18,16.5 C18,18.6723785 14.8137085,20 11,20 C7.1862915,20 4,18.6723785 4,16.5 C4,15.586496 4.56342408,14.8223683 5.5,14.2435215 Z M19.1397639,10.721185 C19.6869924,11.2212265 20,11.8191206 20,12.5 C20,14.6723785 16.8137085,16 13,16 C9.1862915,16 6,14.6723785 6,12.5 C6,12.2304798 6.04904526,11.9739627 6.14224907,11.7313706 C6.68473552,12.0399498 7.31148862,12.2929509 8.00022593,12.4895881 L8,12.5 L8,12.5 C8,13.0890452 10.1862915,14 13,14 C15.8137085,14 18,13.0890452 18,12.5 C18,12.3277748 17.8131023,12.1280308 17.47827,11.9315828 C18.1503315,11.6027363 18.7157573,11.1988615 19.1397639,10.721185 Z M12,5 C15.8137085,5 19,6.32762146 19,8.5 C19,10.6723785 15.8137085,12 12,12 C8.1862915,12 5,10.6723785 5,8.5 C5,6.32762146 8.1862915,5 12,5 Z M12,7 C9.1862915,7 7,7.91095479 7,8.5 C7,9.08904521 9.1862915,10 12,10 C14.8137085,10 17,9.08904521 17,8.5 C17,7.91095479 14.8137085,7 12,7 Z"/>
</svg>
