<svg xmlns="http://www.w3.org/2000/svg" viewBox="0 0 24 24">
  <path fill-rule="evenodd" d="M11.2033933,20 L12.6820914,20 C13.0177703,20 13.2966178,19.7361358 13.2966178,19.4088195 L13.2966178,18.0419379 L13.603881,17.9628806 C16.1103624,17.3562898 17,15.6974805 17,14.4644386 C17,12.1791782 14.9521029,11.2296659 12.9449121,10.5994319 C11.0606265,10.0009554 10.4582922,9.63819253 10.4582922,9.10251251 C10.4582922,8.62225223 11.0359471,8.14127319 12.3302873,8.14127319 C13.7559886,8.14127319 14.648576,8.53138655 15.0296807,8.70057753 C15.1118739,8.73604239 15.1979076,8.7559916 15.2831803,8.7559916 C15.520535,8.7559916 15.7379298,8.62225979 15.8400887,8.41685305 L16.4261995,7.22286974 C16.4961021,7.08470436 16.5037832,6.91919604 16.44694,6.7736483 C16.3939373,6.62366129 16.2787131,6.50543945 16.1312209,6.43895468 C15.4268261,6.11977102 14.660959,5.91511519 13.7960204,5.81683499 L13.4357604,5.77324254 L13.4357604,4.5873925 C13.4357604,4.2645205 13.1615341,4 12.8212339,4 L11.3671169,4 C11.031438,4 10.7525904,4.26376392 10.7525904,4.5873925 L10.7525904,5.90698759 L10.4453272,5.98161131 C8.42201117,6.47443088 7.21281978,7.72307735 7.21281978,9.31909021 C7.21281978,11.423338 9.37988584,12.3609341 11.506049,13.0030843 C13.4679321,13.6178084 13.7344694,14.1497812 13.7344694,14.5908694 C13.7344694,15.2728348 12.8172813,15.768605 11.5552111,15.768605 C10.4821005,15.768605 9.32679075,15.5048411 8.46645373,15.0629964 C8.37657948,15.0157099 8.27825525,14.9920667 8.17531568,14.9920667 C8.11002249,14.9920667 8.0439604,15.0038883 7.97866722,15.0238375 C7.81889034,15.0792516 7.68752917,15.1930342 7.61840723,15.3430212 L7.0530429,16.5525144 C6.92629707,16.8325449 7.03230239,17.1554169 7.31114401,17.3054096 C8.02782933,17.7036562 9.0932707,17.998459 10.223901,18.1211011 L10.5887823,18.156566 L10.5887823,19.4096574 C10.5887823,19.7362361 10.8630085,20 11.2033087,20 L11.2033933,20 Z"/>
</svg>
