<svg xmlns="http://www.w3.org/2000/svg" viewBox="0 0 24 24">
  <path fill-rule="evenodd" d="M13.936127,4.08590251 L14.2304,4.09378047 C15.402493,4.16354791 16.544986,4.55017116 17.4977488,5.24204093 C17.6503628,5.33214326 17.7724502,5.45424372 17.8625674,5.60685953 C17.8967237,5.68753116 17.9308819,5.76892651 17.9650381,5.84959442 C18.0377135,6.11266419 17.9999219,6.39900837 17.8625674,6.63374326 C17.7288558,6.86120372 17.5086512,7.03126884 17.2542884,7.10103628 C17.0130233,7.16717023 16.680893,7.1511814 16.4701395,6.99856558 C16.1256744,6.74855628 15.7557581,6.53708093 15.3633116,6.37138419 L15.49,6.4288541 L15.357195,6.37786542 C15.1063309,6.28838775 14.8495515,6.21853266 14.5879577,6.16908498 L14.466,6.1488541 L14.3329844,6.13603833 C14.0703793,6.11608506 13.8066812,6.11659118 13.5440761,6.13771341 L13.431,6.1488541 L13.292512,6.172335 C13.0342653,6.22202675 12.7806802,6.29181392 12.5331632,6.38075136 L12.404,6.4298541 L12.273049,6.49025354 C12.0190388,6.61365418 11.7753404,6.75693485 11.5430507,6.91774869 L11.417,7.0088541 L11.2728833,7.12709336 C11.0310303,7.33547185 10.8058746,7.56279271 10.5980391,7.8054432 L10.48,7.9498541 L10.3378412,8.14575606 C10.1320489,8.44478998 9.94985363,8.7596728 9.79140079,9.08637217 L14.0396398,9.0858541 C14.5630368,9.0858541 15,9.54085337 15,10.0858541 C15,10.6308548 14.5630368,11.0858541 14.0396398,11.0858541 L14.0396398,11.0858541 L9.212,11.0858541 L9.18992434,11.2943539 C9.16690806,11.5578792 9.15641162,11.8222726 9.15843503,12.0865325 L14.0396398,12.0858541 C14.5630368,12.0858541 15,12.5408534 15,13.0858541 C15,13.6308548 14.5630368,14.0858541 14.0396398,14.0858541 L14.0396398,14.0858541 L9.4609603,14.0864249 C9.53855641,14.3445925 9.62950926,14.598869 9.73394419,14.8481023 L9.682,14.7168541 L9.78348629,14.9417531 C9.94363483,15.2742484 10.1282245,15.5946022 10.3375608,15.8985788 L10.477,16.0898541 L10.396,15.9912651 L10.396,15.9912651 C10.449053,16.0595795 10.5021042,16.1286195 10.5551572,16.1969395 L10.48,16.0938541 L10.5980409,16.238822 C10.8058795,16.4813506 11.031041,16.7084451 11.2728905,16.9169629 L11.412,17.0308541 L11.5430596,17.1262383 C11.775356,17.2867915 12.0190544,17.4300734 12.2730579,17.5537345 L12.412,17.6158541 L12.5331649,17.6635846 C12.7806851,17.7525221 13.034276,17.822307 13.2925191,17.8719988 L13.414,17.8918541 L13.5440761,17.9066213 C13.8066812,17.9277432 14.0703793,17.9282485 14.3329844,17.9082949 L14.476,17.8928541 L14.5880274,17.8752486 C14.849743,17.8258009 15.1067489,17.7559447 15.3574736,17.6664671 L15.492,17.6138541 L15.6533738,17.5405137 C15.8438703,17.4465154 16.0285506,17.3412974 16.2070564,17.2260387 L16.4701433,17.0458363 C16.6809153,16.8932205 17.013027,16.8772316 17.2550363,16.9419126 C17.5093991,17.01168 17.7303219,17.1817265 17.8633153,17.4092056 C18.0006698,17.644666 18.037734,17.9309916 17.965786,18.1933544 C17.9178233,18.3655963 17.8306214,18.5153098 17.7041674,18.6424893 C17.6358474,18.6955423 17.5668074,18.7485935 17.498493,18.8016465 C16.9941209,19.1679349 16.428,19.4484564 15.8386047,19.6497587 C14.0298605,20.2667633 11.9375256,19.9288285 10.4004651,18.7987442 C10.0232744,18.5218512 9.6628093,18.2253488 9.34450233,17.8823163 C9.02037209,17.5334791 8.72385116,17.1512093 8.46586047,16.7500558 C8.24202791,16.4019442 8.04797953,16.0356744 7.88664186,15.6548558 C7.68824186,15.1846419 7.50945674,14.7137209 7.38954419,14.2166233 C7.37917786,14.1735839 7.36909437,14.1304409 7.35929751,14.0872014 L5.96036021,14.0858541 C5.43696319,14.0858541 5,13.6308548 5,13.0858541 C5,12.5408534 5.43696319,12.0858541 5.96036021,12.0858541 L5.96036021,12.0858541 L7.12468139,12.0859599 C7.12306512,11.8166114 7.13403622,11.5476441 7.15843721,11.2806233 C7.16437138,11.2159735 7.1707506,11.1513015 7.17762304,11.0866389 L5.96036021,11.0858541 C5.43696319,11.0858541 5,10.6308548 5,10.0858541 C5,9.54085337 5.43696319,9.0858541 5.96036021,9.0858541 L5.96036021,9.0858541 L7.61115495,9.08594871 C7.70529003,8.81897055 7.81220969,8.55653444 7.92733023,8.29660465 C8.28634419,7.48624186 8.79506977,6.73115349 9.40989767,6.09306977 C9.73257674,5.75731163 10.094493,5.45933953 10.4753116,5.19117209 C10.7849116,4.97314419 11.1155721,4.78346605 11.4644093,4.63448372 C11.888093,4.45351628 12.3110698,4.29218047 12.7660093,4.20787907 C13.2463814,4.1184893 13.7405767,4.0647107 14.2304,4.09378047 Z"/>
</svg>
