<svg xmlns="http://www.w3.org/2000/svg" viewBox="0 0 24 24">
  <path fill-rule="evenodd" d="M4,4 L6.15287291,4 C6.64171206,4 7.05890217,4.35341304 7.13926684,4.83560101 L7.33333333,6 L7.33333333,6 L18,6 C18.5522847,6 19,6.44771525 19,7 L19,11.1528729 C19,11.6417121 18.646587,12.0589022 18.164399,12.1392668 L8.62162162,13.7297297 L8.62162162,13.7297297 L8.66666667,14 L18,14 C18.5522847,14 19,14.4477153 19,15 C19,15.5522847 18.5522847,16 18,16 L7.84712709,16 C7.35828794,16 6.94109783,15.646587 6.86073316,15.164399 L5.47260017,6.83560101 C5.39223551,6.35341304 4.9750454,6 4.48620624,6 L4,6 L4,6 C3.44771525,6 3,5.55228475 3,5 C3,4.44771525 3.44771525,4 4,4 Z M7.86073316,9.16439899 L8.13289831,10.7973899 C8.22369336,11.3421602 8.7389209,11.7101799 9.28369122,11.6193848 L16.164399,10.4726002 C16.646587,10.3922355 17,9.9750454 17,9.48620624 L17,9 C17,8.44771525 16.5522847,8 16,8 L8.84712709,8 C8.29484234,8 7.84712709,8.44771525 7.84712709,9 C7.84712709,9.05508086 7.85167793,9.11006756 7.86073316,9.16439899 Z M17.5,20 C16.6715729,20 16,19.3284271 16,18.5 C16,17.6715729 16.6715729,17 17.5,17 C18.3284271,17 19,17.6715729 19,18.5 C19,19.3284271 18.3284271,20 17.5,20 Z M6.5,20 C5.67157288,20 5,19.3284271 5,18.5 C5,17.6715729 5.67157288,17 6.5,17 C7.32842712,17 8,17.6715729 8,18.5 C8,19.3284271 7.32842712,20 6.5,20 Z"/>
</svg>
