<svg xmlns="http://www.w3.org/2000/svg" viewBox="0 0 24 24">
  <path fill-rule="evenodd" d="M12,2 C14.7614237,2 17,4.23857625 17,7 L17,8 L19,8 C20.1045695,8 21,8.8954305 21,10 L21,18 C21,20.209139 19.209139,22 17,22 L7,22 C4.790861,22 3,20.209139 3,18 L3,10 C3,8.8954305 3.8954305,8 5,8 L7,8 L7,7 C7,4.23857625 9.23857625,2 12,2 Z M18,10 L6,10 C5.44771525,10 5,10.4477153 5,11 L5,11 L5,18 C5,19.1045695 5.8954305,20 7,20 L7,20 L17,20 C18.1045695,20 19,19.1045695 19,18 L19,18 L19,11 C19,10.4477153 18.5522847,10 18,10 L18,10 Z M12,4 C10.3431458,4 9,5.34314575 9,7 L9,8 L15,8 L15,7 C15,5.34314575 13.6568542,4 12,4 Z"/>
</svg>
