<svg xmlns="http://www.w3.org/2000/svg" viewBox="0 0 24 24">
  <path fill-rule="evenodd" d="M19,16.7002538 C19,17.4906313 18.534533,18.2068742 17.8122769,18.5278769 L10.7030692,21.6875248 C10.4507271,21.7996768 10.1552463,21.6860303 10.0430942,21.4336882 C10.0146811,21.3697587 10,21.3005782 10,21.230619 L10,10.2997462 C10,9.50936875 10.465467,8.79312576 11.1877231,8.47212308 L16.767,5.992 L7,5.95898437 L7,17 C7,17.5522847 6.55228475,18 6,18 C5.44771525,18 5,17.5522847 5,17 L5,5 C5,4.44771525 5.44771525,4 6,4 L18,4 C18.5522847,4 19,4.44771525 19,5 L19,16.7002538 Z"/>
</svg>
