<svg xmlns="http://www.w3.org/2000/svg" viewBox="0 0 24 24">
  <path fill-rule="evenodd" d="M19.7396505,16.1122014 C20.0867832,16.4593341 20.0867832,17.0221474 19.7396505,17.3692801 L17.3692801,19.7396505 C17.0221474,20.0867832 16.4593341,20.0867832 16.1122014,19.7396505 C15.7650687,19.3925178 15.7650687,18.8297045 16.1122014,18.4825718 L18.4825718,16.1122014 C18.8297045,15.7650687 19.3925178,15.7650687 19.7396505,16.1122014 Z M19.7396505,10.1862755 C20.0867832,10.5334082 20.0867832,11.0962215 19.7396505,11.4433542 L11.4433542,19.7396505 C11.0962215,20.0867832 10.5334082,20.0867832 10.1862755,19.7396505 C9.83914275,19.3925178 9.83914275,18.8297045 10.1862755,18.4825718 L18.4825718,10.1862755 C18.8297045,9.83914275 19.3925178,9.83914275 19.7396505,10.1862755 Z M19.7396505,4.26034953 C20.0867832,4.60748223 20.0867832,5.17029555 19.7396505,5.51742825 L5.51742825,19.7396505 C5.17029555,20.0867832 4.60748223,20.0867832 4.26034953,19.7396505 C3.91321682,19.3925178 3.91321682,18.8297045 4.26034953,18.4825718 L18.4825718,4.26034953 C18.8297045,3.91321682 19.3925178,3.91321682 19.7396505,4.26034953 Z"/>
</svg>
