<svg xmlns="http://www.w3.org/2000/svg" viewBox="0 0 24 24">
  <path fill-rule="evenodd" d="M12,3 C16.9705627,3 21,7.02943725 21,12 C21,16.9705627 16.9705627,21 12,21 C7.02943725,21 3,16.9705627 3,12 C3,7.02943725 7.02943725,3 12,3 Z M12,5 C8.13400675,5 5,8.13400675 5,12 C5,15.8659932 8.13400675,19 12,19 C15.8659932,19 19,15.8659932 19,12 C19,8.13400675 15.8659932,5 12,5 Z M12.3195396,11 C12.8718243,11 13.3195396,11.4477153 13.3195396,12 C13.3195396,12.0550809 13.3149887,12.1100676 13.3059335,12.164399 L12.6392668,16.164399 C12.5589022,16.646587 12.1417121,17 11.6528729,17 L11.1804604,17 C10.6281757,17 10.1804604,16.5522847 10.1804604,16 C10.1804604,15.9449191 10.1850113,15.8899324 10.1940665,15.835601 L10.8607332,11.835601 C10.9410978,11.353413 11.3582879,11 11.8471271,11 L12.3195396,11 Z M12.5,7 C13.3284271,7 14,7.67157288 14,8.5 C14,9.32842712 13.3284271,10 12.5,10 C11.6715729,10 11,9.32842712 11,8.5 C11,7.67157288 11.6715729,7 12.5,7 Z"/>
</svg>
