<svg xmlns="http://www.w3.org/2000/svg" viewBox="0 0 24 24">
  <path fill-rule="evenodd" d="M20.1421356,5 L21.5563492,6.41421356 L18.6260487,9.34432733 C20.024845,9.96744948 21,11.3698449 21,13 C21,15.209139 19.209139,17 17,17 L10.97,17 L7.41421356,20.5563492 L6,19.1421356 L20.1421356,5 Z M14,5 C15.1409731,5 16.1703705,5.47771253 16.8990904,6.24403576 L15.4839988,7.65917519 C15.118011,7.25435984 14.5887099,7 14,7 C13.2258937,7 12.5327685,7.44266902 12.2008252,8.12619227 L11.8032289,8.94490533 C11.5778509,9.4089941 11.0364083,9.62544852 10.5532129,9.44462873 L9.70079307,9.12563907 C9.47977443,9.04293021 9.2443569,9 9,9 C7.8954305,9 7,9.8954305 6.99990545,10.9805524 L7.04077124,12.5723307 L5.66749604,13.0560313 C5.27121081,13.1956125 5,13.5721894 5,14 C5,14.5522847 5.44771525,15 6,15 L8.142,15 L6.142,17 L6,17 C4.34314575,17 3,15.6568542 3,14 C3,12.6926384 3.83626891,11.580598 5.00305882,11.1696264 L5.00082712,11.0850575 L5,11 C5,8.790861 6.790861,7 9,7 C9.49318905,7 9.965531,7.08925707 10.4017533,7.25249874 C11.0492263,5.91925059 12.4172619,5 14,5 Z M17.029,10.941 L12.97,15 L17,15 C18.1045695,15 19,14.1045695 19,13 C19,12.081852 18.3752336,11.2872332 17.5003647,11.062604 L17.029,10.941 Z"/>
</svg>
