<svg xmlns="http://www.w3.org/2000/svg" viewBox="0 0 24 24">
  <path fill-rule="evenodd" d="M8.95827173,20.0000613 L8.88534579,19.9942427 C8.87706385,19.9932843 8.86880555,19.992222 8.86057251,19.9910571 C8.84097989,19.9880997 8.82129077,19.9846609 8.80159295,19.9805998 C8.7822996,19.9769404 8.76336795,19.9724879 8.74461971,19.9674962 C8.7348158,19.9644812 8.72513759,19.9617342 8.71546447,19.958832 C8.68821977,19.951094 8.66177259,19.9419353 8.63579803,19.9317098 C8.63391826,19.9305877 8.63126332,19.9295383 8.62860932,19.9284767 L3.62860932,17.9284767 C3.24895094,17.7766133 3,17.4089046 3,17 L3,5 C3,4.2925354 3.71452628,3.80877755 4.37139068,4.07152331 L9.031,5.93501382 L14.6837722,4.0513167 L14.6932955,4.04766434 C14.721787,4.03839891 14.750754,4.03039318 14.7801151,4.02370243 L14.6837722,4.0513167 C14.7245353,4.03772902 14.7653822,4.02690669 14.8061409,4.01872568 C14.8337671,4.01261585 14.8617699,4.0082486 14.8900298,4.00509178 C14.8998312,4.0044444 14.9095013,4.00349129 14.9191572,4.00268216 C14.9480949,3.99991446 14.9771836,3.99882294 15.0064435,3.99904111 C15.0127817,3.99927924 15.0187799,3.99936613 15.024769,3.99950755 L15.0417283,3.99993871 C15.0658638,4.00098701 15.0900959,4.00293159 15.1143859,4.00579866 C15.1229361,4.00671571 15.1311944,4.00777797 15.1394275,4.00894289 C15.1590201,4.01190027 15.1787092,4.01533907 15.1984071,4.01940016 C15.2177004,4.02305962 15.2366321,4.02751213 15.2553803,4.03250383 C15.2651842,4.03551877 15.2748624,4.0382658 15.2845355,4.04116805 C15.3117802,4.04890603 15.3382274,4.05806475 15.364202,4.0682902 C15.3660817,4.0694123 15.3687367,4.07046171 15.3713907,4.07152331 L20.3713907,6.07152331 C20.7510491,6.22338666 21,6.59109541 21,7 L21,19 C21,19.7074646 20.2854737,20.1912224 19.6286093,19.9284767 L14.968,18.0640138 L9.31622777,19.9486833 L9.30670446,19.9523357 C9.27821302,19.9616011 9.24924597,19.9696068 9.21988493,19.9762976 L9.31622777,19.9486833 C9.27546471,19.962271 9.23461778,19.9730933 9.19385908,19.9812743 C9.16623293,19.9873841 9.13823007,19.9917514 9.1099702,19.9949082 C9.10016878,19.9955556 9.09049874,19.9965087 9.08084282,19.9973178 C9.05190508,20.0000855 9.02281639,20.0011771 8.99355654,20.0009589 C8.98721826,20.0007208 8.98122013,20.0006339 8.975231,20.0004925 L8.95827173,20.0000613 L8.95827173,20.0000613 Z M14,6.38742589 L10,7.72075922 L10,17.6125741 L14,16.2792408 L14,6.38742589 Z M5,6.47703296 L5,16.322967 L8,17.522967 L8,7.67703296 L5,6.47703296 Z M16,6.47703296 L16,16.322967 L19,17.522967 L19,7.67703296 L16,6.47703296 Z"/>
</svg>
