<svg xmlns="http://www.w3.org/2000/svg" viewBox="0 0 24 24">
    <path fill-rule="evenodd"
        d="M4,19 C3.44771525,19 3,18.5522847 3,18 L3,18 L3,16 C3,15.7836298 3.07017787,15.5730962 3.2,15.4 L3.2,15.4 L6,11.667 L6.00022674,7.97870591 L6.00552905,7.74046947 C6.14225763,4.53687401 8.78310847,2 12,2 C15.2168915,2 17.8577424,4.53687401 17.9951537,7.76181629 L17.9951537,7.76181629 L18,8 L18,11.667 L20.8,15.4 C20.9039485,15.5385981 20.969656,15.7011952 20.9917197,15.8715686 L20.9917197,15.8715686 L21,16.0005532 L20.9988935,18.0005532 C20.9985881,18.5526218 20.5509624,19 19.9988936,19 L19.9988936,19 L15,19 C15,20.6568542 13.6568542,22 12,22 C10.3431458,22 9,20.6568542 9,19 L9,19 Z M12,4 C14.1443893,4 15.9052001,5.69148329 15.99629,7.82575129 L16.0002267,8.02129409 L16,12 L16.0083371,12.1288689 C16.0304569,12.2990862 16.0961423,12.4615231 16.2,12.6 L19,16.333 L18.999,17 L5,17 L5,16.333 L7.8,12.6 C7.92982213,12.4269038 8,12.2163702 8,12 L8,8 L8.00439277,7.80440446 C8.09479995,5.69148329 9.85561071,4 12,4 Z" />
</svg>