<svg xmlns="http://www.w3.org/2000/svg" viewBox="0 0 24 24">
    <path fill-rule="evenodd"
        d="M19 3.603a3 3 0 0 1 3 3v8.794a3 3 0 0 1-3.773 2.898l-2.764-.737-1.587 2.803a1 1 0 0 1-1.128.474l-6.01-1.603a1 1 0 0 1-.716-.739L5.206 15 4.5 15A2.5 2.5 0 0 1 2 12.5v-3A2.5 2.5 0 0 1 4.5 7h1.238a1 1 0 0 0 .258-.034l12.231-3.261A3 3 0 0 1 19 3.603ZM7.352 15.395l.481 2.059 4.684 1.249.949-1.678-6.114-1.63ZM19 5.603a1 1 0 0 0-.258.034L6.511 8.899A3 3 0 0 1 5.738 9H4.5a.5.5 0 0 0-.5.5v3a.5.5 0 0 0 .5.5h1.238l.167.004a.994.994 0 0 1 .445.059c.054.011.107.024.16.038l12.232 3.262A1 1 0 0 0 20 15.397V6.603a1 1 0 0 0-1-1Z" />
</svg>