<svg xmlns="http://www.w3.org/2000/svg" viewBox="0 0 24 24">
  <path fill-rule="evenodd" d="M19,11 C19.5522847,11 20,11.4477153 20,12 L20,16 C20,17.1045695 19.1045695,18 18,18 L6,18 C4.8954305,18 4,17.1045695 4,16 L4,12 C4,11.4477153 4.44771525,11 5,11 C5.55228475,11 6,11.4477153 6,12 L6,15 C6,15.5522847 6.44771525,16 7,16 L17,16 C17.5522847,16 18,15.5522847 18,15 L18,12 C18,11.4477153 18.4477153,11 19,11 Z M13,6 L13,11 L15.5746095,11 C15.7265013,11 15.8701578,11.0690449 15.9650439,11.1876525 C16.1375486,11.4032834 16.102588,11.7179296 15.886957,11.8904344 L15.886957,11.8904344 L12.3123475,14.750122 C12.1297382,14.8962094 11.8702618,14.8962094 11.6876525,14.750122 L11.6876525,14.750122 L8.11304301,11.8904344 C7.99443539,11.7955483 7.92539053,11.6518919 7.92539053,11.5 C7.92539053,11.2238576 8.14924815,11 8.42539053,11 L8.42539053,11 L11,11 L11,6 L13,6 Z"/>
</svg>
