<svg xmlns="http://www.w3.org/2000/svg" viewBox="0 0 24 24">
  <path fill-rule="evenodd" d="M10.5,4 C14.0898509,4 17,6.91014913 17,10.5 C17,11.7516289 16.646236,12.9206319 16.0332424,13.9124744 L19.5710678,17.4497475 C19.9615921,17.8402718 19.9615921,18.4734367 19.5710678,18.863961 L18.863961,19.5710678 C18.4734367,19.9615921 17.8402718,19.9615921 17.4497475,19.5710678 L13.9124744,16.0332424 C12.9206319,16.646236 11.7516289,17 10.5,17 C6.91014913,17 4,14.0898509 4,10.5 C4,6.91014913 6.91014913,4 10.5,4 Z M10.5,6.5 C8.290861,6.5 6.5,8.290861 6.5,10.5 C6.5,12.709139 8.290861,14.5 10.5,14.5 C12.709139,14.5 14.5,12.709139 14.5,10.5 C14.5,8.290861 12.709139,6.5 10.5,6.5 Z"/>
</svg>
