<svg xmlns="http://www.w3.org/2000/svg" viewBox="0 0 24 24">
  <path fill-rule="evenodd" d="M14.016014,4.59820732 L14.2514038,4.59954834 C15.4471293,4.64719082 15.1913475,5.64768322 14.8083327,6.030698 C13.3490694,7.41687861 11.6750537,8.42205325 9.88146554,9.23476393 C9.59468275,9.52250331 9.30789996,9.8092861 9.04445772,10.0960689 C8.67933192,10.480817 7.84622673,11.6872224 6.97853989,13.0000571 L20,13 C20.5522847,13 21,13.4477153 21,14 C21,14.5522847 20.5522847,15 20,15 L5.67882873,15.0010188 C4.95873066,16.1268067 4.39402441,17.0371851 4.31317253,17.1900985 C3.93015775,17.859896 2.69234228,17.0223307 3.07535706,16.3525331 C3.11349237,16.2840116 3.43607056,15.7365904 3.88183988,14.9940123 C3.38551479,14.9349317 3,14.5124867 3,14 C3,13.4477153 3.44771525,13 4,13 L5.09469859,13.0001268 C5.8191696,11.8274711 6.53513807,10.7087157 6.85266113,10.330014 C5.68132848,10.7373259 4.93135347,11.0060638 3.73562802,11.3404843 C2.9938956,11.5553322 2.59901451,10.0485364 3.34074692,9.8336789 C5.27830045,9.28345387 7.26339602,8.70893171 9.10462191,7.89622103 C9.82205718,7.22642346 10.4977444,6.39729606 11.2628174,5.82373047 C12.1474629,5.12963576 13.0556784,4.55190585 14.2514038,4.59954834 Z M12.368144,8.87590281 C12.846439,8.68439542 13.3013838,9.35419299 13.0378986,9.76056746 C12.9183284,9.90443715 12.8463983,10.0716426 12.7968881,10.2397903 C13.6105554,10.1435583 14.3036935,9.88107267 15.0211288,9.37848535 C15.2836144,9.18698753 15.6899794,9.32990063 15.8338395,9.59334286 C15.953412,9.80819081 17.3406496,9.23462045 17.5321523,9.16269038 C17.8675293,9.04311784 18.1785997,9.28226293 18.2738847,9.56904572 C18.2972396,9.66433069 18.3215272,9.73626075 18.3215272,9.80819081 C18.9913247,9.83153138 19.8040354,9.61667864 20.4261953,9.54474858 C21.1912682,9.44947318 21.1879941,10.9982474 20.4229211,11.0935324 C19.5372233,11.18975 18.5330053,11.4288951 17.6483597,11.285035 C17.4568619,11.2373973 17.3139345,11.0701823 17.2420044,10.8786797 C16.5488663,11.1178247 15.7837933,11.3569698 15.2335683,10.9982522 C14.2526908,11.5727648 13.1765378,11.8352648 12.0051095,11.7876223 C11.5754041,11.7642818 11.3839015,11.4055641 11.4315439,11.0225493 C11.4315439,10.9749069 11.4558315,10.9506193 11.4558315,10.9029768 C10.8579688,11.1654624 10.2834466,11.4765424 9.70988104,11.7876223 C9.04008825,12.1696805 8.44549493,10.7890635 9.1152925,10.4060488 C10.1682005,9.80818603 11.2443534,9.30655529 12.368144,8.87590281 Z"/>
</svg>
