<svg xmlns="http://www.w3.org/2000/svg" viewBox="0 0 24 24">
  <path fill-rule="evenodd" d="M11.5,4 C15.6421356,4 19,7.35786438 19,11.5 C19,12.6697652 18.7321992,13.7769822 18.2545621,14.7636863 L20,20 L14.7636863,18.2545621 C13.7769822,18.7321992 12.6697652,19 11.5,19 C7.35786438,19 4,15.6421356 4,11.5 C4,7.35786438 7.35786438,4 11.5,4 Z M11.5,6 C8.46243388,6 6,8.46243388 6,11.5 C6,14.5375661 8.46243388,17 11.5,17 C12.3422827,17 13.1537253,16.8118958 13.8922695,16.4543864 L14.6244408,16.0999618 L16.8377223,16.8377223 L16.0999618,14.6244408 L16.4543864,13.8922695 C16.8118958,13.1537253 17,12.3422827 17,11.5 C17,8.46243388 14.5375661,6 11.5,6 Z M9.5,10 C10.3284271,10 11,10.6715729 11,11.5 C11,12.3284271 10.3284271,13 9.5,13 C8.67157288,13 8,12.3284271 8,11.5 C8,10.6715729 8.67157288,10 9.5,10 Z M13.5,10 C14.3284271,10 15,10.6715729 15,11.5 C15,12.3284271 14.3284271,13 13.5,13 C12.6715729,13 12,12.3284271 12,11.5 C12,10.6715729 12.6715729,10 13.5,10 Z"/>
</svg>
