<svg xmlns="http://www.w3.org/2000/svg" viewBox="0 0 20 20">
    <path fill-rule="evenodd"
        d="M10 1c2.125 0 4.078.736 5.617 1.968l.04-.04 1.414 1.415-.039.04A8.962 8.962 0 0 1 19 10a8.962 8.962 0 0 1-1.968 5.617l.04.04-1.415 1.414-.04-.039A8.962 8.962 0 0 1 10 19a8.962 8.962 0 0 1-5.617-1.968l-.04.04-1.414-1.415.039-.04A8.962 8.962 0 0 1 1 10c0-2.125.736-4.078 1.968-5.617l-.04-.04L4.344 2.93l.04.039A8.962 8.962 0 0 1 10 1ZM7.604 13.81l-2.152 2.154A7.467 7.467 0 0 0 10 17.5c1.71 0 3.287-.572 4.548-1.536l-2.152-2.154A4.479 4.479 0 0 1 10 14.5c-.88 0-1.702-.253-2.396-.69Zm8.36-8.358L13.81 7.604c.437.694.69 1.515.69 2.396 0 .88-.253 1.702-.69 2.396l2.154 2.152A7.467 7.467 0 0 0 17.5 10c0-1.71-.572-3.287-1.536-4.548ZM2.5 10c0 1.71.572 3.287 1.536 4.548l2.154-2.152A4.479 4.479 0 0 1 5.5 10c0-.88.253-1.702.69-2.396L4.036 5.452A7.467 7.467 0 0 0 2.5 10ZM10 7a3 3 0 1 0 0 6 3 3 0 0 0 0-6Zm0-4.5c-1.71 0-3.287.572-4.548 1.536L7.604 6.19A4.479 4.479 0 0 1 10 5.5c.88 0 1.702.253 2.396.69l2.152-2.154A7.467 7.467 0 0 0 10 2.5Z" />
</svg>