<svg xmlns="http://www.w3.org/2000/svg" viewBox="0 0 24 24"><path fill="#000" fill-rule="evenodd" d="M3.752 5.002c2.372-.68 3.727-.82 5.936-.746l.425.016c2.271.097 3.44 0 5.725-.655a1 1 0 0 1 1.237.686l2.205 7.69a1 1 0 0 1-.686 1.237c-2.372.68-3.727.82-5.936.747l-.425-.017c-1.87-.08-2.992-.028-4.607.358l-.152.037 1.925 6.713a1 1 0 0 1-.576 1.199l-.11.038a1 1 0 0 1-1.237-.685L3.066 6.24a1 1 0 0 1 .686-1.238Zm1.517 1.663 1.653 5.767.274-.067c1.671-.398 2.903-.479 4.697-.419l.425.016c1.87.08 2.993.029 4.607-.358l.152-.037-1.654-5.768-.273.069c-1.671.397-2.902.478-4.697.418l-.425-.016c-1.87-.08-2.993-.028-4.607.358l-.152.037Z"/></svg>