<svg xmlns="http://www.w3.org/2000/svg" viewBox="0 0 24 24">
  <path fill-rule="evenodd" d="M16.153,4 L14.209,6 L6,6 C5.44771525,6 5,6.44771525 5,7 L5,18 L19,18 L19.0002173,10.9610378 C19.659656,10.2710035 20.3217368,9.58143667 21.0002102,8.88753239 L21,19 C21,19.5522847 20.5522847,20 20,20 L4,20 C3.44771525,20 3,19.5522847 3,19 L3,5 C3,4.44771525 3.44771525,4 4,4 L16.153,4 Z M19.5111639,4.00059351 C20.1065456,3.98361499 20.6510761,4.33220521 20.8847116,4.88048598 C21.1174187,5.42782618 20.991165,6.06278421 20.5662921,6.48013262 C18.0236141,9.02835756 15.6919617,11.5900881 13.0899554,14.1976414 C12.56994,14.7223717 11.7390055,14.7704132 11.1605782,14.3106909 L11.1605782,14.3106909 L7.54299595,11.4166251 C7.24342638,11.1763935 7.05124111,10.8278274 7.00884787,10.4453525 C6.96644981,10.063794 7.07760846,9.68131909 7.31689706,9.38173505 C7.55712864,9.08120079 7.90569475,8.88901552 8.28816966,8.84662228 C8.66972812,8.80422422 9.05220303,8.91538287 9.35178708,9.15561204 L9.35178708,9.15561204 L11.9369114,11.2281973 C14.1356778,8.9824022 16.2261339,6.73265192 18.5163288,4.43775421 C18.7791582,4.16831909 19.135273,4.01099285 19.5111639,4.00059351 Z"/>
</svg>
