<svg xmlns="http://www.w3.org/2000/svg" viewBox="0 0 24 24">
  <path fill-rule="evenodd" d="M12,4 C16.4112,4 20,7.5888 20,12 C20,12.54312 19.945,13.086256 19.83688,13.61184 C19.493136,15.25184 17.89816,16.2968 16.28184,15.9568 C15.6377911,15.8227546 15.0675917,15.4890724 14.6413577,15.0018876 C13.936518,15.6228675 13.0116203,16 12,16 C9.79376,16 8,14.20624 8,12 C8,9.79376 9.79376,8 12,8 C14.20624,8 16,9.79376 16,12 C16,12.267423 15.9736454,12.5287857 15.9233961,12.7816282 L15.915024,12.815472 L15.915024,12.815472 C15.8612736,13.077344 15.9112736,13.3436 16.0581488,13.567344 C16.205024,13.791088 16.4293968,13.944224 16.6900208,13.999216 C17.2281488,14.1054656 17.7600208,13.764208 17.8737648,13.224208 C17.9587648,12.814208 18.0000144,12.407952 18.0000144,11.999216 C18.0000144,8.690416 15.3088144,5.999216 12.0000144,5.999216 C8.6912144,5.999216 6.0000144,8.690416 6.0000144,11.999216 C6.0000144,15.308016 8.6912144,17.999216 12.0000144,17.999216 C12.7081424,17.999216 13.4031344,17.8773408 14.0636944,17.635472 C14.5824464,17.447344 15.1555664,17.7117216 15.3455664,18.232352 C15.5343184,18.751104 15.2686912,19.325472 14.7486864,19.514224 C13.8686864,19.836096 12.9424464,19.999216 11.9998864,19.999216 L12,20 C7.5888,20 4,16.4112 4,12 C4,7.5888 7.5888,4 12,4 Z M12,10 C10.89688,10 10,10.89688 10,12 C10,13.10312 10.89688,14 12,14 C13.10312,14 14,13.10312 14,12 C14,10.89688 13.10312,10 12,10 Z"/>
</svg>
