<svg xmlns="http://www.w3.org/2000/svg" viewBox="0 0 24 24">
  <path fill-rule="evenodd" d="M10.6117919,19.8402776 C10.5479913,19.9416659 10.4431781,20 10.3331466,20 C10.2895273,20 10.2465597,19.9909723 10.2048937,19.9736107 C10.0564596,19.9076393 9.97313096,19.7388912 10.0063304,19.5715315 L11.2563095,13.004248 L7.33320844,13.004248 C7.22969517,13.004248 7.13334511,12.9542481 7.07019617,12.867443 C7.00704723,12.7806378 6.98491093,12.6681367 7.01030051,12.5618791 L9.01026706,4.26874616 C9.04672478,4.11041401 9.1795309,4 9.33317833,4 L15.333078,4 C15.454821,4 15.5681074,4.07083364 15.6266897,4.18472854 C15.6852821,4.2986181 15.6800739,4.43751028 15.6149699,4.54723452 L12.9431813,9 L16.6664524,9 C16.7881953,9 16.9014818,9.06402511 16.9600641,9.18 C17.0180065,9.295278 17.0127982,9.43958243 16.945091,9.55 L10.6117919,19.8402776 Z"/>
</svg>
