<svg xmlns="http://www.w3.org/2000/svg" viewBox="0 0 24 24">
  <path fill-rule="evenodd" d="M10.5971707,13.4028293 C10.972516,13.7781746 10.972516,14.3867295 10.5971707,14.7620748 L7.35924552,18 L9,18 C9.55228475,18 10,18.4477153 10,19 C10,19.5522847 9.55228475,20 9,20 L5,20 C4.44771525,20 4,19.5522847 4,19 L4,15 C4,14.4477153 4.44771525,14 5,14 C5.55228475,14 6,14.4477153 6,15 L6,16.6407545 L9.23792517,13.4028293 C9.61327046,13.027484 10.2218254,13.027484 10.5971707,13.4028293 Z M19,4 C19.5522847,4 20,4.44771525 20,5 L20,9 C20,9.55228475 19.5522847,10 19,10 C18.4477153,10 18,9.55228475 18,9 L18,7.35924552 L14.7620748,10.5971707 C14.3867295,10.972516 13.7781746,10.972516 13.4028293,10.5971707 C13.027484,10.2218254 13.027484,9.61327046 13.4028293,9.23792517 L16.6407545,6 L15,6 C14.4477153,6 14,5.55228475 14,5 C14,4.44771525 14.4477153,4 15,4 L19,4 Z"/>
</svg>
