<svg xmlns="http://www.w3.org/2000/svg" viewBox="0 0 24 24">
  <path fill-rule="evenodd" d="M9.2543898,10.627409 C9.63381182,11.0061505 9.63381182,11.6209941 9.2543898,11.9997356 L6.50974255,14.7450876 C5.75159729,15.5032345 5.75159729,16.7322578 6.50974255,17.4904396 C7.2678878,18.2479052 8.49690839,18.2479052 9.2543898,17.4904396 L11.9997533,14.7450876 C12.3791753,14.3656648 12.9933362,14.3656648 13.3727582,14.7450876 C13.751499,15.1238291 13.751499,15.7386727 13.3727582,16.1174142 L10.6274122,18.8627666 C9.11110422,20.3790778 6.65308053,20.3790778 5.13672014,18.8627666 C3.62109329,17.3464549 3.62109329,14.8884259 5.13672014,13.372761 L7.88206617,10.627409 C8.26148819,10.2486675 8.87564909,10.2486675 9.2543898,10.627409 Z M14.7450993,9.25438361 C15.1238401,9.63380645 15.1238401,10.2479687 14.7450993,10.6273915 L10.627517,14.7449828 C10.2487763,15.1237243 9.63393411,15.1237243 9.2551934,14.7449828 C8.87577138,14.3655599 8.87577138,13.7513977 9.2551934,13.3719749 L13.3727757,9.25438361 C13.7515164,8.87564208 14.3663586,8.87564208 14.7450993,9.25438361 Z M18.862769,5.13672247 C20.379077,6.65303375 20.379077,9.11106278 18.862769,10.6274265 L16.117423,13.3720797 C15.7386823,13.7515025 15.1238401,13.7515025 14.7450993,13.3720797 C14.3663586,12.9933382 14.3663586,12.3791759 14.7450993,11.9997531 L17.4904454,9.25440108 C18.2479093,8.49693549 18.2479093,7.26792971 17.4904454,6.50974786 C16.7323001,5.75160096 15.5032795,5.75160096 14.7450993,6.50974786 L11.9997533,9.25508239 C11.6210126,9.63382392 11.0061704,9.63382392 10.6274297,9.25508239 C10.2480077,8.87565955 10.2480077,8.26149731 10.6274297,7.88207447 L13.3727757,5.13672247 C14.8884024,3.62109251 17.3464086,3.62109251 18.862769,5.13672247 Z"/>
</svg>
