<svg xmlns="http://www.w3.org/2000/svg" viewBox="0 0 24 24">
  <g fill="none" fill-rule="evenodd" transform="translate(2 2)">
    <rect width="20" height="20"/>
    <path fill="#000" d="M16,10 C16,9.44771525 16.4477153,9 17,9 C17.5522847,9 18,9.44771525 18,10 C18,14.418278 14.418278,18 10,18 C8.56123707,18 7.21118308,17.6201918 6.04463124,16.9553688 L4.70710678,18.2928932 C4.31658249,18.6834175 3.68341751,18.6834175 3.29289322,18.2928932 C3.10535684,18.1053568 3,17.8510029 3,17.5857864 L3,14 C3,13.4477153 3.44771525,13 4,13 L7.58578644,13 C8.13807119,13 8.58578644,13.4477153 8.58578644,14 C8.58578644,14.2652165 8.4804296,14.5195704 8.29289322,14.7071068 L7.53025713,15.4697429 C8.28347352,15.8103765 9.11959228,16 10,16 C13.3137085,16 16,13.3137085 16,10 Z M2,10 C2,5.581722 5.581722,2 10,2 C11.4387629,2 12.7888169,2.37980815 13.9553688,3.04463124 L15.2928932,1.70710678 C15.6834175,1.31658249 16.3165825,1.31658249 16.7071068,1.70710678 C16.8946432,1.89464316 17,2.14899707 17,2.41421356 L17,6 C17,6.55228475 16.5522847,7 16,7 L12.4142136,7 C11.8619288,7 11.4142136,6.55228475 11.4142136,6 C11.4142136,5.73478351 11.5195704,5.4804296 11.7071068,5.29289322 L12.4697429,4.53025713 C11.7165265,4.18962352 10.8804077,4 10,4 C6.6862915,4 4,6.6862915 4,10 C4,10.5522847 3.55228475,11 3,11 C2.44771525,11 2,10.5522847 2,10 Z"/>
  </g>
</svg>
