<svg xmlns="http://www.w3.org/2000/svg" viewBox="0 0 24 24">
  <path fill-rule="evenodd" d="M13,4 L13.691424,6.76498331 C14.1698604,6.91945011 14.6196423,7.13768229 15.0307533,7.40966367 L17.6065894,6.21161327 L18.8652302,7.76590519 L17.1448034,10.0513173 C17.3199607,10.5135102 17.4346236,11.0054571 17.4791269,11.5174929 L20.022143,12.8155179 L19.5722409,14.764258 L16.725054,14.8165842 C16.4693849,15.244568 16.1572179,15.6349025 15.7988512,15.9772892 L16.3878136,18.7606805 L14.5902255,19.6374228 L12.7517153,17.4490565 C12.505941,17.4826466 12.254997,17.5 12,17.5 C11.7451962,17.5 11.4944393,17.4826729 11.2488434,17.4491328 L9.4097745,19.6374228 L7.61218641,18.7606805 L8.20114885,15.9772892 C7.84278209,15.6349025 7.53061505,15.244568 7.27494603,14.8165842 L4.42775915,14.764258 L3.97785704,12.8155179 L6.52078577,11.5184992 C6.56516175,11.0068448 6.67959199,10.515241 6.85443432,10.0533298 L5.13476983,7.76590519 L6.39341062,6.21161327 L8.96823828,7.41033099 C9.3798955,7.13785833 9.83034649,6.91928615 10.3095305,6.76467526 L11,4 L13,4 Z M12,8.5 C10.0670034,8.5 8.5,10.0670034 8.5,12 C8.5,13.9329966 10.0670034,15.5 12,15.5 C13.9329966,15.5 15.5,13.9329966 15.5,12 C15.5,10.0670034 13.9329966,8.5 12,8.5 Z"/>
</svg>
