<svg xmlns="http://www.w3.org/2000/svg" viewBox="0 0 24 24">
  <path fill-rule="evenodd" d="M10.8606401,14.3782532 L13.6467568,11.5921365 C14.031299,11.2075943 14.031299,10.5836203 13.6467568,10.1990781 C13.2622147,9.81453595 12.6382406,9.81453595 12.2536985,10.1990781 L9.46758172,12.9851948 C8.72116944,13.7316071 8.42913797,14.819934 8.7025605,15.8398036 C8.97598303,16.8596733 9.77233646,17.6559803 10.7921481,17.9293912 C11.8119597,18.2028021 12.9003329,17.9107938 13.6467568,17.16437 L16.4328736,14.3782532 C17.677223,13.1339038 18.1628431,11.3205133 17.707522,9.62095888 C17.2522008,7.92140446 15.9244537,6.59356444 14.2248761,6.13831296 C12.5252984,5.68306149 10.711815,6.16872807 9.46758172,7.41296137 L6.68146498,10.1990781 C6.29692283,10.5836203 5.67294877,10.5836203 5.28840662,10.1990781 C4.90386446,9.81453595 4.90386446,9.19056189 5.28840662,8.80601974 L8.07452335,6.019903 C9.81631067,4.27811569 12.355264,3.59747898 14.7350837,4.23504696 C17.1144274,4.8730677 18.9727672,6.73140756 19.610788,9.11075126 C20.248356,11.4905477 19.5677193,14.0295243 17.8259319,15.7713116 L15.0398152,18.5574283 C13.7954658,19.8017777 11.9820753,20.2873979 10.2825209,19.8320767 C8.58296658,19.3767555 7.2551265,18.0490084 6.79987495,16.3494308 C6.34462347,14.6498532 6.83029005,12.8363698 8.07452335,11.5921365 L10.8606401,8.80601974 C11.6070524,8.05960746 12.6953792,7.76757599 13.7152489,8.04099852 C14.7351185,8.31442105 15.5314255,9.11077447 15.8048364,10.1305861 C16.0782473,11.1503977 15.7862391,12.238771 15.0398152,12.9851948 L12.2536985,15.7713116 C11.8691563,16.1558537 11.2451822,16.1558537 10.8606401,15.7713116 C10.4760979,15.3867694 10.4760979,14.7627954 10.8606401,14.3782532 Z"/>
</svg>
