<svg xmlns="http://www.w3.org/2000/svg" viewBox="0 0 24 24">
  <path fill-rule="evenodd" d="M12,14 C12.5522847,14 13,14.4477153 13,15 L13,18.585 L14.2928932,17.2928932 C14.6533772,16.9324093 15.2206082,16.9046797 15.6128994,17.2097046 L15.7071068,17.2928932 C16.0976311,17.6834175 16.0976311,18.3165825 15.7071068,18.7071068 L15.7071068,18.7071068 L12.7071068,21.7071068 C12.3165825,22.0976311 11.6834175,22.0976311 11.2928932,21.7071068 L11.2928932,21.7071068 L8.29289322,18.7071068 C7.90236893,18.3165825 7.90236893,17.6834175 8.29289322,17.2928932 C8.68341751,16.9023689 9.31658249,16.9023689 9.70710678,17.2928932 L9.70710678,17.2928932 L11,18.585 L11,15 C11,14.4477153 11.4477153,14 12,14 Z M6.70710678,8.29289322 C7.09763107,8.68341751 7.09763107,9.31658249 6.70710678,9.70710678 L5.415,10.999 L9,11 C9.55228475,11 10,11.4477153 10,12 C10,12.5522847 9.55228475,13 9,13 L5.413,12.999 L6.70710678,14.2928932 C7.09763107,14.6834175 7.09763107,15.3165825 6.70710678,15.7071068 C6.31658249,16.0976311 5.68341751,16.0976311 5.29289322,15.7071068 L2.29289322,12.7071068 C1.90236893,12.3165825 1.90236893,11.6834175 2.29289322,11.2928932 L5.29289322,8.29289322 C5.68341751,7.90236893 6.31658249,7.90236893 6.70710678,8.29289322 Z M17.2928932,8.29289322 C17.6834175,7.90236893 18.3165825,7.90236893 18.7071068,8.29289322 L18.7071068,8.29289322 L21.7071068,11.2928932 C22.0976311,11.6834175 22.0976311,12.3165825 21.7071068,12.7071068 L21.7071068,12.7071068 L18.7071068,15.7071068 C18.3165825,16.0976311 17.6834175,16.0976311 17.2928932,15.7071068 C16.9023689,15.3165825 16.9023689,14.6834175 17.2928932,14.2928932 L17.2928932,14.2928932 L18.585,12.999 L15,13 C14.4477153,13 14,12.5522847 14,12 C14,11.4477153 14.4477153,11 15,11 L18.585,10.999 L17.2928932,9.70710678 C16.9324093,9.34662282 16.9046797,8.77939176 17.2097046,8.38710056 Z M11.2928932,2.29289322 C11.6834175,1.90236893 12.3165825,1.90236893 12.7071068,2.29289322 L12.7071068,2.29289322 L15.7071068,5.29289322 C16.0976311,5.68341751 16.0976311,6.31658249 15.7071068,6.70710678 C15.3165825,7.09763107 14.6834175,7.09763107 14.2928932,6.70710678 L14.2928932,6.70710678 L13,5.414 L13,9 C13,9.55228475 12.5522847,10 12,10 C11.4477153,10 11,9.55228475 11,9 L11,5.414 L9.70710678,6.70710678 C9.34662282,7.06759074 8.77939176,7.09532028 8.38710056,6.79029539 L8.29289322,6.70710678 C7.90236893,6.31658249 7.90236893,5.68341751 8.29289322,5.29289322 L8.29289322,5.29289322 Z"/>
</svg>
