<svg xmlns="http://www.w3.org/2000/svg" viewBox="0 0 24 24">
  <path fill-rule="evenodd" d="M18.3892646,5.6107354 C19.2035785,6.42504926 19.2035785,7.74531289 18.3892646,8.55962675 L14.949,12 L18.3892646,15.4403732 C19.1628628,16.2139714 19.2015427,17.4441893 18.5053043,18.2634494 L18.3892646,18.3892646 C17.5749507,19.2035785 16.2546871,19.2035785 15.4403732,18.3892646 L15.4403732,18.3892646 L12,14.949 L8.55962675,18.3892646 C7.74531289,19.2035785 6.42504926,19.2035785 5.6107354,18.3892646 C4.79642153,17.5749507 4.79642153,16.2546871 5.6107354,15.4403732 L9.051,12 L5.6107354,8.55962675 C4.83713723,7.78602858 4.79845732,6.55581075 5.49469567,5.73655061 L5.6107354,5.6107354 C6.42504926,4.79642153 7.74531289,4.79642153 8.55962675,5.6107354 L8.55962675,5.6107354 L12,9.051 L15.4403732,5.6107354 C16.2546871,4.79642153 17.5749507,4.79642153 18.3892646,5.6107354 Z"/>
</svg>
