<svg xmlns="http://www.w3.org/2000/svg" viewBox="0 0 24 24"><path fill="#000" fill-rule="evenodd" d="M21 2a1 1 0 0 1 1 1v14a1 1 0 0 1-1 1h-3v3a1 1 0 0 1-1 1H3a1 1 0 0 1-1-1V7a1 1 0 0 1 1-1l3-.001V3a1 1 0 0 1 1-1h14Zm-5.5 6h-11a.5.5 0 0 0-.5.5v11a.5.5 0 0 0 .5.5h11a.5.5 0 0 0 .5-.5v-11a.5.5 0 0 0-.5-.5ZM10 10a1 1 0 0 1 1 1v1.999L13 13a1 1 0 0 1 0 2l-2-.001V17a1 1 0 0 1-2 0v-2.001L7 15a1 1 0 0 1 0-2l2-.001V11a1 1 0 0 1 1-1Zm9.5-6h-11a.5.5 0 0 0-.5.5v1.499L17 6a1 1 0 0 1 1 1v9h1.5a.5.5 0 0 0 .5-.5v-11a.5.5 0 0 0-.5-.5Z"/></svg>