<svg xmlns="http://www.w3.org/2000/svg" viewBox="0 0 24 24">
    <path fill-rule="evenodd" d="M9.46481624,4 C9.79916943,4 10.1114008,4.16710114 10.2968665,4.4452998 L11.7031335,6.5547002 C11.8885992,6.83289886 12.2008306,7 12.5351838,7 L19,7 C19.5522847,7 20,7.44771525 20,8 L20,17 C20,17.5522847 19.5522847,18 19,18 L5,18 C4.44771525,18 4,17.5522847 4,17 L4,5 C4,4.44771525 4.44771525,4 5,4 L9.46481624,4 Z M17,9 L7,9 C6.44771525,9 6,9.44771525 6,10 L6,10 L6,15 C6,15.5522847 6.44771525,16 7,16 L7,16 L17,16 C17.5522847,16 18,15.5522847 18,15 L18,15 L18,10 C18,9.44771525 17.5522847,9 17,9 L17,9 Z"/>
</svg>