<svg xmlns="http://www.w3.org/2000/svg" viewBox="0 0 24 24">
  <path fill-rule="evenodd" d="M10,6 C11.5827381,6 12.9507737,6.91925059 13.5993333,8.25297811 C14.034469,8.08925707 14.5068109,8 15,8 C17.209139,8 19,9.790861 19,12 C19,12.0568516 18.998814,12.1134262 18.9964653,12.1697004 C20.1637311,12.580598 21,13.6926384 21,15 C21,16.6568542 19.6568542,18 18,18 L12.999,18 L13,14 L15.5746095,14 C15.7265013,14 15.8701578,13.9309551 15.9650439,13.8123475 C16.1375486,13.5967166 16.102588,13.2820704 15.886957,13.1095656 L15.886957,13.1095656 L12.3123475,10.249878 C12.1297382,10.1037906 11.8702618,10.1037906 11.6876525,10.249878 L11.6876525,10.249878 L8.11304301,13.1095656 C7.99443539,13.2044517 7.92539053,13.3481081 7.92539053,13.5 C7.92539053,13.7761424 8.14924815,14 8.42539053,14 L8.42539053,14 L11,14 L10.999,18 L7,18 C4.790861,18 3,16.209139 3,14 C3,12.1349873 4.27637818,10.5680887 6.00325852,10.1251803 L6,10 C6,7.790861 7.790861,6 10,6 Z"/>
</svg>
