<svg xmlns="http://www.w3.org/2000/svg" viewBox="0 0 24 24">
  <path fill-rule="evenodd" d="M17,16 L17,8 L16.9947066,7.81771182 C16.8751267,5.76010727 14.7432885,4 12,4 C9.17602651,4 7,5.86516558 7,8 L7,8 L7,16 L5,16 C3.8954305,16 3,15.1045695 3,14 L3,10 C3,8.8954305 3.8954305,8 5,8 L5.00441862,7.78479926 C5.13660709,4.57076573 8.21805008,2 12,2 C15.8659932,2 19,4.6862915 19,8 L19,8 C20.1045695,8 21,8.8954305 21,10 L21,14 C21,15.1045695 20.1045695,16 19,16 L19,16 C19,18.3114735 16.8041046,20.256605 13.8210972,20.8291205 C13.5059366,21.5195808 12.8090722,22 12,22 C10.8954305,22 10,21.1045695 10,20 C10,18.8954305 10.8954305,18 12,18 C12.6676744,18 13.2589338,18.3271713 13.6222047,18.8299403 C15.6406331,18.3961844 17,17.1880647 17,16 L17,16 Z"/>
</svg>
