<svg xmlns="http://www.w3.org/2000/svg" viewBox="0 0 24 24">
  <path fill-rule="evenodd" d="M8,4.86851709 C8.19742499,4.86851709 8.39043268,4.92695512 8.5547002,5.0364668 L18.3759623,11.5839749 C18.6057266,11.7371511 18.6678136,12.0475858 18.5146373,12.2773501 C18.4780199,12.3322762 18.4308884,12.3794077 18.3759623,12.4160251 L8.5547002,18.9635332 C8.09517151,19.2698857 7.47430216,19.1457118 7.16794971,18.6861831 C7.05843803,18.5219156 7,18.3289079 7,18.1314829 L7,5.86851709 C7,5.31623234 7.44771525,4.86851709 8,4.86851709 Z M10,8.86851709 C9.44771525,8.86851709 9,9.31623234 9,9.86851709 L9,9.86851709 L9,14.1314829 C9,14.3289079 9.05843803,14.5219156 9.16794971,14.6861831 C9.47430216,15.1457118 10.0951715,15.2698857 10.5547002,14.9635332 L10.5547002,14.9635332 L14.3759623,12.4160251 C14.4308884,12.3794077 14.4780199,12.3322762 14.5146373,12.2773501 C14.6678136,12.0475858 14.6057266,11.7371511 14.3759623,11.5839749 L14.3759623,11.5839749 L10.5547002,9.0364668 C10.3904327,8.92695512 10.197425,8.86851709 10,8.86851709 Z"/>
</svg>
