<svg xmlns="http://www.w3.org/2000/svg" viewBox="0 0 24 24">
  <path fill-rule="evenodd" d="M9,7 L9,6 C9,5.44771525 9.44771525,5 10,5 L14,5 C14.5522847,5 15,5.44771525 15,6 L15,6.999 L15.9132005,7 L15.93,7 L17,7 C17.5522847,7 18,7.44771525 18,8 C18,8.55228475 17.5522847,9 17,9 L16.833,9 L16.0764129,18.0830455 C16.0332219,18.6013376 15.5999558,19 15.0798671,19 L8.92013288,19 C8.40004424,19 7.96677813,18.6013376 7.92358712,18.0830455 L7.166,9 L7,9 C6.44771525,9 6,8.55228475 6,8 C6,7.44771525 6.44771525,7 7,7 L9,7 Z M14.7602758,9.00087228 L9.2351037,9.00516302 L9.79008559,17 L14.2091438,17 L14.7602758,9.00087228 Z"/>
</svg>
