<svg xmlns="http://www.w3.org/2000/svg" viewBox="0 0 24 24">
    <path fill-rule="evenodd"
        d="M17 2a3 3 0 0 1 .965 5.841c-.212 2.433-1.427 3.602-4.095 4.593l-.495.177-.26.087-.544.173-.823.253-.495.162c-2.166.736-3.009 1.419-3.205 2.902A3 3 0 1 1 6 16.17V7.829a3.001 3.001 0 1 1 2 0v4.778l.11-.073c.826-.537 1.919-.973 3.319-1.405l.823-.253.495-.162c2.166-.736 3.009-1.419 3.205-2.902A3 3 0 0 1 17 2ZM7 18a1 1 0 1 0 0 2 1 1 0 0 0 0-2ZM7 4a1 1 0 1 0 0 2 1 1 0 0 0 0-2Zm10 0a1 1 0 1 0 0 2 1 1 0 0 0 0-2Z" />
</svg>