<svg xmlns="http://www.w3.org/2000/svg" viewBox="0 0 24 24">
    <path fill-rule="evenodd"
        d="m13 2 .638 3.193c.722.173 1.4.458 2.016.835l2.71-1.806 1.414 1.414-1.806 2.71c.377.616.662 1.294.835 2.016L22 11v2l-3.193.64a6.959 6.959 0 0 1-.835 2.014l1.806 2.71-1.414 1.414-2.71-1.806a6.959 6.959 0 0 1-2.015.835L13 22h-2l-.638-3.193a6.959 6.959 0 0 1-2.016-.835l-2.71 1.806-1.414-1.414 1.806-2.71a6.959 6.959 0 0 1-.835-2.016L2 13v-2l3.193-.637c.173-.722.458-1.401.835-2.017l-1.806-2.71 1.414-1.414 2.71 1.806a6.959 6.959 0 0 1 2.017-.835L11 2h2Zm-1 5.5a4.5 4.5 0 1 0 0 9 4.5 4.5 0 0 0 0-9Z" />
</svg>