<svg xmlns="http://www.w3.org/2000/svg" viewBox="0 0 24 24">
  <path fill-rule="evenodd" d="M12.1197652,4.06197115 L22.5979107,9.78055456 C22.7191071,9.84669905 22.7637354,9.99856882 22.6975909,10.1197652 C22.674614,10.1618659 22.6400114,10.1964684 22.5979107,10.2194454 L21.9998073,10.5454166 L22,15 C22,15.5522847 21.5522847,16 21,16 C20.4477153,16 20,15.5522847 20,15 L19.9998073,11.6374166 L17.9998073,12.7284166 L18,16 C18,18.209139 15.3137085,20 12,20 C8.6862915,20 6,18.209139 6,16 L5.99980726,12.7284166 L1.40208931,10.2194454 C1.28089294,10.153301 1.23626457,10.0014312 1.30240905,9.88023481 C1.32538604,9.83813414 1.35998863,9.80353155 1.40208931,9.78055456 L11.8802348,4.06197115 C11.9548815,4.02123173 12.0451185,4.02123173 12.1197652,4.06197115 Z M7.99880726,13.8194166 L8,16 C8,16.8930934 9.66035987,18 12,18 C14.3396401,18 16,16.8930934 16,16 L15.9988073,13.8204166 L12.1197652,15.9380289 C12.0451185,15.9787683 11.9548815,15.9787683 11.8802348,15.9380289 L7.99880726,13.8194166 Z M11.9796797,6.51695025 L11.9407153,6.53024189 L5.70427382,9.8899531 C5.6827537,9.90154647 5.66510503,9.91919515 5.65351166,9.94071526 C5.62731801,9.98933704 5.63662456,10.0475813 5.67251286,10.0856981 L5.70427382,10.1100469 L11.9407153,13.4697581 C11.9653878,13.4830498 11.9934128,13.4874803 12.0203203,13.4830498 L12.0592847,13.4697581 L18.2957262,10.1100469 C18.3172463,10.0984535 18.334895,10.0808049 18.3464883,10.0592847 C18.372682,10.010663 18.3633754,9.9524187 18.3274871,9.91430193 L18.2957262,9.8899531 L12.0592847,6.53024189 C12.0346122,6.51695025 12.0065872,6.5125197 11.9796797,6.51695025 Z"/>
</svg>
