<svg xmlns="http://www.w3.org/2000/svg" viewBox="0 0 24 24">
  <path fill-rule="evenodd" d="M17,5 C17.5522847,5 18,5.44771525 18,6 L17.9999223,9.05692233 L19.5812382,10.1862665 C19.9960806,10.4825825 20.116685,11.0375371 19.8803026,11.4746365 L19.8137335,11.5812382 C19.4927245,12.0306508 18.8681744,12.1347425 18.4187618,11.8137335 L18.4187618,11.8137335 L17.9999223,11.5139223 L18,19 C18,19.5522847 17.5522847,20 17,20 L7,20 C6.44771525,20 6,19.5522847 6,19 L5.99992233,11.5139223 L5.58123819,11.8137335 C5.13182561,12.1347425 4.50727552,12.0306508 4.18626653,11.5812382 C3.86525754,11.1318256 3.96934922,10.5072755 4.41876181,10.1862665 L11.4187618,5.18626653 L11.4325806,5.17624041 C11.4528487,5.16228132 11.473561,5.1491278 11.4946672,5.1367882 L11.4187618,5.18626653 C11.4576922,5.1584591 11.4979368,5.13384158 11.5391845,5.11236212 C11.5576669,5.10269461 11.5762228,5.09380602 11.5950054,5.08550911 C11.6144776,5.07682135 11.6339392,5.06891794 11.6535521,5.06166332 C11.6698198,5.05582468 11.6867961,5.05007482 11.7039022,5.04478615 C11.7245277,5.03816552 11.7451859,5.03249306 11.7659455,5.02750417 C11.7839364,5.02344746 11.8015221,5.01972719 11.8191933,5.01648047 C11.8397655,5.01246998 11.8605731,5.00933742 11.8814207,5.00686719 C11.9023137,5.00454014 11.9236441,5.00266656 11.9450267,5.00147582 C11.9640394,5.0003676 11.9824541,4.99989261 12.0008521,4.99992377 C12.0182155,4.99991005 12.0362953,5.00038551 12.0543701,5.00135243 C12.0763559,5.00266656 12.0976863,5.00454014 12.1189297,5.00709073 C12.140286,5.00943921 12.1619494,5.0127293 12.183533,5.0167435 C12.2001114,5.02008277 12.2163639,5.02353778 12.232526,5.02739457 C12.2557509,5.0326721 12.2791785,5.03916476 12.3024286,5.04654494 C12.3174922,5.05154408 12.331797,5.05643913 12.3459954,5.06165997 C12.3653086,5.06861272 12.3851498,5.07665598 12.4048026,5.08537853 C12.4237772,5.09380602 12.4423331,5.10269461 12.4606321,5.11216985 C12.5020632,5.13384158 12.5423078,5.1584591 12.5812382,5.18626653 L12.5053328,5.1367882 C12.526439,5.1491278 12.5471513,5.16228132 12.5674194,5.17624041 L12.5812382,5.18626653 L15.9999223,7.62792233 L16,6 C16,5.44771525 16.4477153,5 17,5 Z M11.9989223,7.22792233 L7.99992233,10.0849223 L8,18 L16,18 L15.9999223,10.0859223 L11.9989223,7.22792233 Z"/>
</svg>
