<svg xmlns="http://www.w3.org/2000/svg" viewBox="0 0 24 24">
  <path fill-rule="evenodd" d="M17.5111639,7.00062968 C17.135273,7.01099285 16.7791582,7.16831909 16.5163288,7.43775421 C14.2261339,9.73265192 12.1356778,11.9824022 9.93691135,14.2281973 L7.35178708,12.155612 C7.05220303,11.9153829 6.66972812,11.8042242 6.28816966,11.8466223 C5.90569475,11.8890155 5.55712864,12.0812008 5.31689706,12.3817351 C5.07760846,12.6813191 4.96644981,13.063794 5.00884787,13.4453525 C5.05124111,13.8278274 5.24342638,14.1763935 5.54299595,14.4166251 L9.1605782,17.3106909 C9.73900549,17.7704132 10.56994,17.7223717 11.0899554,17.1976414 C13.6919617,14.5900881 16.0236141,12.0283576 18.5662921,9.48013262 C18.991165,9.06278421 19.1174187,8.42782618 18.8847116,7.88048598 C18.6510761,7.33220521 18.1065456,6.98361499 17.5111639,7.00059351 L17.5111639,7.00062968 Z"/>
</svg>
