<svg xmlns="http://www.w3.org/2000/svg" viewBox="0 0 24 24">
  <path fill-rule="evenodd" d="M19,11 C19.5522847,11 20,11.4477153 20,12 L20,16 C20,17.1045695 19.1045695,18 18,18 L6,18 C4.8954305,18 4,17.1045695 4,16 L4,12 C4,11.4477153 4.44771525,11 5,11 C5.55228475,11 6,11.4477153 6,12 L6,15 C6,15.5522847 6.44771525,16 7,16 L17,16 C17.5522847,16 18,15.5522847 18,15 L18,12 C18,11.4477153 18.4477153,11 19,11 Z M12.3123475,6.24987802 L15.886957,9.1095656 C16.102588,9.28207037 16.1375486,9.59671656 15.9650439,9.81234752 C15.8701578,9.93095514 15.7265013,10 15.5746095,10 L13,10 L13,14 C13,14.5522847 12.5522847,15 12,15 C11.4477153,15 11,14.5522847 11,14 L11,14 L11,10 L8.42539053,10 C8.14924815,10 7.92539053,9.77614237 7.92539053,9.5 C7.92539053,9.34810814 7.99443539,9.20445169 8.11304301,9.1095656 L11.6876525,6.24987802 C11.8702618,6.10379056 12.1297382,6.10379056 12.3123475,6.24987802 Z"/>
</svg>
