<svg xmlns="http://www.w3.org/2000/svg" viewBox="0 0 24 24">
  <path fill-rule="evenodd" d="M18.7071068,4.29289322 C18.8946432,4.4804296 19,4.73478351 19,5 L19,8.58578644 C19,9.13807119 18.5522847,9.58578644 18,9.58578644 L14.4142136,9.58578644 C13.8619288,9.58578644 13.4142136,9.13807119 13.4142136,8.58578644 C13.4142136,8.32056995 13.5195704,8.06621603 13.7071068,7.87867966 L14.4697429,7.11604357 C13.7165265,6.77540996 12.8804077,6.58578644 12,6.58578644 C8.69465945,6.58578644 6.01357113,9.25852794 6.00005136,12.5606946 L6,16.5 C6,17.3284271 6.67157288,18 7.5,18 L16.5,18 C17.3284271,18 18,17.3284271 18,16.5 L18,13 C18,12.4477153 18.4477153,12 19,12 C19.5522847,12 20,12.4477153 20,13 L20,17 C20,18.6568542 18.6568542,20 17,20 L7,20 C5.34314575,20 4,18.6568542 4,17 L4,12 L4.02112081,11.9999878 C4.32108062,7.8552125 7.77873263,4.58578644 12,4.58578644 C13.4387629,4.58578644 14.7888169,4.96559459 15.9553688,5.63041768 L17.2928932,4.29289322 C17.6834175,3.90236893 18.3165825,3.90236893 18.7071068,4.29289322 Z M12,11 C13.1045695,11 14,11.8954305 14,13 C14,13.7398375 13.5982846,14.3858493 13.0010775,14.7318119 L13,16 C13,16.5522847 12.5522847,17 12,17 C11.4477153,17 11,16.5522847 11,16 L10.9999275,14.7323937 C10.4021661,14.3865739 10,13.7402524 10,13 C10,11.8954305 10.8954305,11 12,11 Z"/>
</svg>
