<svg xmlns="http://www.w3.org/2000/svg" viewBox="0 0 24 24">
  <path fill-rule="evenodd" d="M17.5,3.29289322 C17.860484,3.65337718 17.8882135,4.22060824 17.5831886,4.61289944 L17.5,4.70710678 L16.4393398,5.76776695 C15.8535534,6.35355339 15.8535534,7.30330086 16.4393398,7.8890873 C17.0251263,8.47487373 17.9748737,8.47487373 18.5606602,7.8890873 L19.6213203,6.82842712 L19.7085412,6.75072076 C20.1010588,6.4398953 20.6729042,6.46579743 21.0355339,6.82842712 C21.3960179,7.18891109 21.4237474,7.75614214 21.1187225,8.14843335 L21.0355339,8.24264069 L19.9748737,9.30330086 C18.8540579,10.4241167 17.1622002,10.6258544 15.8358186,9.9085141 L10.5798849,15.1643898 C10.8478492,15.6593073 11,16.2260989 11,16.8284271 C11,18.7614237 9.43299662,20.3284271 7.5,20.3284271 C5.56700338,20.3284271 4,18.7614237 4,16.8284271 C4,14.8954305 5.56700338,13.3284271 7.5,13.3284271 C8.10232827,13.3284271 8.66911982,13.4805779 9.16403731,13.7485422 L14.4204275,8.49355941 C13.7024763,7.16703558 13.9040426,5.47463705 15.0251263,4.35355339 L16.0857864,3.29289322 L16.1730073,3.21518685 C16.5655249,2.9043614 17.1373703,2.93026352 17.5,3.29289322 Z M7.5,15.3284271 C6.67157288,15.3284271 6,16 6,16.8284271 C6,17.6568542 6.67157288,18.3284271 7.5,18.3284271 C8.32842712,18.3284271 9,17.6568542 9,16.8284271 C9,16 8.32842712,15.3284271 7.5,15.3284271 Z"/>
</svg>
