<svg xmlns="http://www.w3.org/2000/svg" viewBox="0 0 24 24">
  <path fill-rule="evenodd" d="M8,15.5 C9.02522718,15.5 9.90631615,16.1171291 10.2920545,17.0001748 L20,17 C20.5522847,17 21,17.4477153 21,18 C21,18.5522847 20.5522847,19 20,19 L10.2916153,19.00083 C9.90564763,19.8833391 9.02483825,20.5 8,20.5 C6.97516175,20.5 6.09435237,19.8833391 5.70838468,19.00083 L4,19 C3.44771525,19 3,18.5522847 3,18 C3,17.4477153 3.44771525,17 4,17 L5.70794546,17.0001748 C6.09368385,16.1171291 6.97477282,15.5 8,15.5 Z M16,9.5 C17.0252272,9.5 17.9063162,10.1171291 18.2920545,11.0001748 L20,11 C20.5522847,11 21,11.4477153 21,12 C21,12.5522847 20.5522847,13 20,13 L18.2916153,13.00083 C17.9056476,13.8833391 17.0248383,14.5 16,14.5 C14.9751617,14.5 14.0943524,13.8833391 13.7083847,13.00083 L4,13 C3.44771525,13 3,12.5522847 3,12 C3,11.4477153 3.44771525,11 4,11 L13.7079455,11.0001748 C14.0936838,10.1171291 14.9747728,9.5 16,9.5 Z M8,3.5 C9.02522718,3.5 9.90631615,4.11712907 10.2920545,5.00017484 L20,5 C20.5522847,5 21,5.44771525 21,6 C21,6.55228475 20.5522847,7 20,7 L10.2916153,7.00083003 C9.90564763,7.88333908 9.02483825,8.5 8,8.5 C6.97516175,8.5 6.09435237,7.88333908 5.70838468,7.00083003 L4,7 C3.44771525,7 3,6.55228475 3,6 C3,5.44771525 3.44771525,5 4,5 L5.70794546,5.00017484 C6.09368385,4.11712907 6.97477282,3.5 8,3.5 Z"/>
</svg>