<svg xmlns="http://www.w3.org/2000/svg" viewBox="0 0 24 24">
    <g id="Icons" stroke="none" stroke-width="1" fill-rule="evenodd" >
        <g id="Icon-/-system-/-question">
            <path d="M12,3 C16.9705627,3 21,7.02943725 21,12 C21,16.9705627 16.9705627,21 12,21 C7.02943725,21 3,16.9705627 3,12 C3,7.02943725 7.02943725,3 12,3 Z M12,5 C8.13400675,5 5,8.13400675 5,12 C5,15.8659932 8.13400675,19 12,19 C15.8659932,19 19,15.8659932 19,12 C19,8.13400675 15.8659932,5 12,5 Z M11.9957056,14 C12.8241327,14 13.4957056,14.6715729 13.4957056,15.5 C13.4957056,16.3284271 12.8241327,17 11.9957056,17 C11.1672784,17 10.4957056,16.3284271 10.4957056,15.5 C10.4957056,14.6715729 11.1672784,14 11.9957056,14 Z M11.9094042,7 C14.4737878,7 15.7225122,8.07470703 15.7225122,9.5748295 C15.7225122,10.5041504 15.05788,11.2883301 14.4737878,11.5966755 C13.6987854,12.0058033 13.2596405,12.2753032 13.2045323,12.8679008 L13.198619,13 L10.4957056,13 C10.4957056,11.5786596 10.6950206,11.1344158 11.6135138,10.715358 C12.3963905,10.3567827 12.9943357,10.0586901 12.9943357,9.5748295 C12.9943357,9.14281112 12.501185,8.84903863 11.8847467,8.84903863 C11.2633768,8.84903863 10.7279247,9.15387079 10.6592928,9.59844906 L10.6518699,9.69579464 L8.21,9.69579464 C8.23465753,7.7949138 9.51145899,7 11.9094042,7 Z" id="➠-BG-Icon"></path>
        </g>
    </g>
</svg>