<svg xmlns="http://www.w3.org/2000/svg" viewBox="0 0 24 24">
  <path fill-rule="evenodd" d="M13.5,15 C13.7761424,15 14,15.2238576 14,15.5 L14,18.3596118 C14,18.6357542 13.7761424,18.8596118 13.5,18.8596118 C13.4591191,18.8596118 13.4183925,18.8545981 13.3787322,18.844683 L10.3787322,18.094683 C10.1561487,18.0390372 10,17.8390456 10,17.6096118 L10,15.5 C10,15.2238576 10.2238576,15 10.5,15 L13.5,15 Z M16,10 C16.5522847,10 17,10.4477153 17,11 C17,11.5522847 16.5522847,12 16,12 L8,12 C7.44771525,12 7,11.5522847 7,11 C7,10.4477153 7.44771525,10 8,10 L16,10 Z M19,5 C19.5522847,5 20,5.44771525 20,6 C20,6.55228475 19.5522847,7 19,7 L5,7 C4.44771525,7 4,6.55228475 4,6 C4,5.44771525 4.44771525,5 5,5 L19,5 Z"/>
</svg>
