<svg xmlns="http://www.w3.org/2000/svg" viewBox="0 0 24 24">
  <path fill-rule="evenodd" d="M15,7 C15,6.44771525 14.5522847,6 14,6 L10,6 C9.48716416,6 9.06449284,6.38604019 9.00672773,6.88337887 L9,7 L9,8 L7,8 L7,6 C7,4.8954305 7.8954305,4 9,4 L15,4 C16.1045695,4 17,4.8954305 17,6 L17,8 L19,8 C20.1045695,8 21,8.8954305 21,10 L21,14 C21,15.1045695 20.1045695,16 19,16 L17,16 L17,18 C17,19.1045695 16.1045695,20 15,20 L9,20 C7.8954305,20 7,19.1045695 7,18 L7,16 L5,16 C3.8954305,16 3,15.1045695 3,14 L3,10 C3,8.8954305 3.8954305,8 5,8 L15,8 L15,7 Z M15,14 L9,14 L9,17 C9,17.5128358 9.38604019,17.9355072 9.88337887,17.9932723 L10,18 L14,18 C14.5128358,18 14.9355072,17.6139598 14.9932723,17.1166211 L15,17 L15,14 Z M18,10 L6,10 C5.48716416,10 5.06449284,10.3860402 5.00672773,10.8833789 L5,11 L5,13 C5,13.5128358 5.38604019,13.9355072 5.88337887,13.9932723 L6,14 L7,14 L7,12 L17,12 L17,14 L18,14 C18.5128358,14 18.9355072,13.6139598 18.9932723,13.1166211 L19,13 L19,11 C19,10.4477153 18.5522847,10 18,10 Z"/>
</svg>
