<svg xmlns="http://www.w3.org/2000/svg" viewBox="0 0 24 24">
  <g fill-rule="evenodd" transform="translate(4 4)">
    <path d="M7,11 C8.1045695,11 9,11.8954305 9,13 C9,14.1045695 8.1045695,15 7,15 C5.8954305,15 5,14.1045695 5,13 C5,11.8954305 5.8954305,11 7,11 Z M12.5,10 C13.3284271,10 14,10.6715729 14,11.5 C14,12.3284271 13.3284271,13 12.5,13 C11.6715729,13 11,12.3284271 11,11.5 C11,10.6715729 11.6715729,10 12.5,10 Z M3.5,5 C4.88071187,5 6,6.11928813 6,7.5 C6,8.88071187 4.88071187,10 3.5,10 C2.11928813,10 1,8.88071187 1,7.5 C1,6.11928813 2.11928813,5 3.5,5 Z M13.5,5 C14.3284271,5 15,5.67157288 15,6.5 C15,7.32842712 14.3284271,8 13.5,8 C12.6715729,8 12,7.32842712 12,6.5 C12,5.67157288 12.6715729,5 13.5,5 Z M8.5,0 C9.88071187,0 11,1.11928813 11,2.5 C11,3.88071187 9.88071187,5 8.5,5 C7.11928813,5 6,3.88071187 6,2.5 C6,1.11928813 7.11928813,0 8.5,0 Z"/>
  </g>
</svg>
