<svg xmlns="http://www.w3.org/2000/svg" viewBox="0 0 24 24">
  <path fill-rule="evenodd" d="M13.1715729,4 C13.4367894,4 13.6911433,4.10535684 13.8786797,4.29289322 L17.7071068,8.12132034 C17.8946432,8.30885672 18,8.56321063 18,8.82842712 L18,19 C18,19.5522847 17.5522847,20 17,20 L7,20 C6.44771525,20 6,19.5522847 6,19 L6,5 C6,4.44771525 6.44771525,4 7,4 L13.1715729,4 Z M11,6 L9,6 C8.44771525,6 8,6.44771525 8,7 L8,7 L8,17 C8,17.5522847 8.44771525,18 9,18 L9,18 L15,18 C15.5522847,18 16,17.5522847 16,17 L16,17 L16,11 C16,10.4477153 15.5522847,10 15,10 L15,10 L13,10 C12.4477153,10 12,9.55228475 12,9 L12,9 L12,7 C12,6.44771525 11.5522847,6 11,6 L11,6 Z"/>
</svg>
