<svg xmlns="http://www.w3.org/2000/svg" viewBox="0 0 24 24">
  <path fill-rule="evenodd" d="M12.3938593,4.0808136 L19.6963741,7.21017237 C19.8802137,7.28895346 19.9994172,7.46971116 19.9994299,7.66971979 L19.9999791,16.3296303 C19.9999918,16.5296787 19.8807644,16.7104794 19.6968811,16.7892592 L12.393242,19.9183053 C12.1417427,20.0260534 11.8570784,20.0260458 11.605585,19.9182843 L4.30305254,16.78925 C4.1192035,16.7104732 3.99999178,16.5297106 3.99997909,16.329695 L3.99942988,7.66978448 C3.99941719,7.46974309 4.11863633,7.28894726 4.30251025,7.21016311 L11.6061317,4.08079253 C11.8576513,3.97302432 12.1423454,3.97303194 12.3938593,4.0808136 Z M6,9.51653902 L6,15.3406038 L11,17.483461 L11,11.6593962 L6,9.51653902 Z M18,9.51653902 L13,11.6593962 L13,17.483461 L18,15.3406038 L18,9.51653902 Z M12,6.08796759 L7.53859104,8 L12,9.91203241 L16.461409,8 L12,6.08796759 Z"/>
</svg>
