<svg xmlns="http://www.w3.org/2000/svg" viewBox="0 0 24 24">
    <g fill="none" fill-rule="evenodd">
        <path fill="#000000" fill-rule="nonzero"
            d="M12,2 C15.1420801,2 17.7346006,4.42025189 17.9815293,7.53795996 L17.9951537,7.76181629 L18,8 L18,11.667 L20.8,15.4 C20.8779614,15.5039486 20.9344122,15.6213966 20.9670731,15.7455001 L20.9917197,15.8715686 L21,16.0005532 L20.9988935,18.0005532 C20.9986099,18.5131883 20.6126267,18.9355547 20.1154705,18.9932773 L19.9988936,19 L15,19 C15,20.6568542 13.6568542,22 12,22 C10.4023191,22 9.09633912,20.75108 9.00509269,19.1762728 L9,19 L4,19 C3.48716416,19 3.06449284,18.6139598 3.00672773,18.1166211 L3,18 L3,16 C3,15.8269038 3.04491384,15.6575431 3.1293483,15.5080974 L3.2,15.4 L6,11.667 L6.00022674,7.97870591 L6.00552905,7.74046947 C6.14225763,4.53687401 8.78310847,2 12,2 Z M12,4 C9.85561071,4 8.09479995,5.69148329 8.00439277,7.80440446 L8.00439277,7.80440446 L8,8 L8,12 C8,12.2163702 7.92982213,12.4269038 7.8,12.6 L7.8,12.6 L5,16.333 L5,17 L18.999,17 L19,16.333 L16.2,12.6 C16.0961423,12.4615231 16.0304569,12.2990862 16.0083371,12.1288689 L16.0083371,12.1288689 L16,12 L16.0002267,8.02129409 L15.99629,7.82575129 C15.9052001,5.69148329 14.1443893,4 12,4 Z" />
        <circle cx="19" cy="5" r="5" fill="#E62600" />
    </g>
</svg>