<svg xmlns="http://www.w3.org/2000/svg" xmlns:xlink="http://www.w3.org/1999/xlink" viewBox="0 0 24 24">
  <defs>
    <path id="system-view-a" d="M12,5 C17.1497364,5 19.9870115,9.14986473 20.9416202,11.8309178 L21,12 C20.1066998,14.6716667 17.2593052,19 12,19 C6.85026365,19 4.01298852,14.8501353 3.0583798,12.1690822 L3,12 C3.89330025,9.32833333 6.74069479,5 12,5 Z M12,7 C7.90942928,7 5.69478908,10.0916667 5,12 L5,12 L5.05644905,12.1490568 C5.80959373,14.0648477 8.01431571,17 12,17 C16.0905707,17 18.3052109,13.9083333 19,12 L19,12 L18.9435509,11.8509432 C18.1904063,9.93515231 15.9856843,7 12,7 Z M12,15.5 C10.075,15.5 8.5,13.925 8.5,12 C8.5,10.075 10.075,8.5 12,8.5 C13.925,8.5 15.5,10.075 15.5,12 C15.5,13.925 13.925,15.5 12,15.5 Z M12,10.5 C11.175,10.5 10.5,11.175 10.5,12 C10.5,12.825 11.175,13.5 12,13.5 C12.825,13.5 13.5,12.825 13.5,12 C13.5,11.175 12.825,10.5 12,10.5 Z"/>
  </defs>
  <use fill-rule="evenodd" xlink:href="#system-view-a"/>
</svg>
