<?xml version="1.0" encoding="UTF-8"?>
<svg viewBox="0 0 24 24" version="1.1" xmlns="http://www.w3.org/2000/svg" xmlns:xlink="http://www.w3.org/1999/xlink">
    <g id="Icon-/-text-/-align---left" stroke-width="1" fill-rule="evenodd" >
        <path d="M22,17 C22.5522847,17 23,17.4477153 23,18 C23,18.5522847 22.5522847,19 22,19 L22,19 L16,19 C15.4477153,19 15,18.5522847 15,18 C15,17.4477153 15.4477153,17 16,17 L16,17 Z M22,13 C22.5522847,13 23,13.4477153 23,14 C23,14.5522847 22.5522847,15 22,15 L22,15 L4,15 C3.44771525,15 3,14.5522847 3,14 C3,13.4477153 3.44771525,13 4,13 L4,13 Z M22,9 C22.5522847,9 23,9.44771525 23,10 C23,10.5522847 22.5522847,11 22,11 L22,11 L8,11 C7.44771525,11 7,10.5522847 7,10 C7,9.44771525 7.44771525,9 8,9 L8,9 Z M22,5 C22.5522847,5 23,5.44771525 23,6 C23,6.55228475 22.5522847,7 22,7 L22,7 L2,7 C1.44771525,7 1,6.55228475 1,6 C1,5.44771525 1.44771525,5 2,5 L2,5 Z" ></path>
    </g>
</svg>