<?xml version="1.0" encoding="UTF-8"?>
<svg viewBox="0 0 24 24" version="1.1" xmlns="http://www.w3.org/2000/svg" xmlns:xlink="http://www.w3.org/1999/xlink">
    <g id="Icon-/-text-/-align---center" stroke-width="1" fill-rule="evenodd">
        <path d="M15,17 C15.5522847,17 16,17.4477153 16,18 C16,18.5522847 15.5522847,19 15,19 L15,19 L9,19 C8.44771525,19 8,18.5522847 8,18 C8,17.4477153 8.44771525,17 9,17 L9,17 Z M21,13 C21.5522847,13 22,13.4477153 22,14 C22,14.5522847 21.5522847,15 21,15 L21,15 L3,15 C2.44771525,15 2,14.5522847 2,14 C2,13.4477153 2.44771525,13 3,13 L3,13 Z M19,9 C19.5522847,9 20,9.44771525 20,10 C20,10.5522847 19.5522847,11 19,11 L19,11 L5,11 C4.44771525,11 4,10.5522847 4,10 C4,9.44771525 4.44771525,9 5,9 L5,9 Z M22,5 C22.5522847,5 23,5.44771525 23,6 C23,6.55228475 22.5522847,7 22,7 L22,7 L2,7 C1.44771525,7 1,6.55228475 1,6 C1,5.44771525 1.44771525,5 2,5 L2,5 Z" ></path>
    </g>
</svg>