<svg xmlns="http://www.w3.org/2000/svg" viewBox="0 0 24 24">
  <path fill-rule="evenodd" d="M16,3 C16.5522847,3 17,3.44771525 17,4 L17,4 L17,5 L18,5 C19.1045695,5 20,5.8954305 20,7 L20,18 C20,19.1045695 19.1045695,20 18,20 L6,20 C4.8954305,20 4,19.1045695 4,18 L4,7 C4,5.8954305 4.8954305,5 6,5 L7,5 L7,4 C7,3.48716416 7.38604019,3.06449284 7.88337887,3.00672773 L8,3 C8.55228475,3 9,3.44771525 9,4 L9,4 L9,5 L11,5 L11,4 C11,3.48716416 11.3860402,3.06449284 11.8833789,3.00672773 L12,3 C12.5522847,3 13,3.44771525 13,4 L13,4 L13,5 L15,5 L15,4 C15,3.48716416 15.3860402,3.06449284 15.8833789,3.00672773 Z M18,11 L6,11 L6,17 C6,17.5522847 6.44771525,18 7,18 L7,18 L17,18 C17.5522847,18 18,17.5522847 18,17 L18,17 L18,11 Z M7.9828385,6.99985571 L7,7 C6.44771525,7 6,7.44771525 6,8 L6,8 L6,9 L18,9 L18,8 C18,7.44771525 17.5522847,7 17,7 L17,7 L16.017,6.999 L16,7 C15.9942681,7 15.9885475,6.99995178 15.9828385,6.99985571 L12.017,6.999 L12,7 C11.9942681,7 11.9885475,6.99995178 11.9828385,6.99985571 L8.017,6.999 L8,7 C7.99426811,7 7.98854748,6.99995178 7.9828385,6.99985571 Z"/>
</svg>
