<svg xmlns="http://www.w3.org/2000/svg" viewBox="0 0 24 24">
  <path fill-rule="evenodd" d="M12,4 C16.418278,4 20,7.581722 20,12 C20,16.418278 16.418278,20 12,20 C7.581722,20 4,16.418278 4,12 C4,7.581722 7.581722,4 12,4 Z M12,6 C8.6862915,6 6,8.6862915 6,12 C6,15.3137085 8.6862915,18 12,18 C15.3137085,18 18,15.3137085 18,12 C18,8.6862915 15.3137085,6 12,6 Z M12,7 C12.5522847,7 13,7.44771525 13,8 L13,11.585 L14.8284271,13.4142136 C15.2189514,13.8047379 15.2189514,14.4379028 14.8284271,14.8284271 C14.4379028,15.2189514 13.8047379,15.2189514 13.4142136,14.8284271 L11.2928932,12.7071068 L11.2196888,12.625449 C11.2173721,12.6225624 11.2150711,12.6196628 11.212786,12.6167501 L11.2928932,12.7071068 C11.2574992,12.6717127 11.225313,12.6343256 11.1963346,12.5953066 C11.1784901,12.5711307 11.1617187,12.546275 11.1460674,12.5206602 C11.1386069,12.5086131 11.1314988,12.4963944 11.1246712,12.4840621 C11.1137939,12.4642939 11.1033766,12.4438914 11.0936538,12.4230991 C11.085679,12.4060985 11.0781964,12.3887956 11.0712255,12.371336 C11.0633157,12.3515792 11.0561225,12.3317977 11.0495467,12.3117364 C11.0447287,12.2968513 11.0400977,12.2814633 11.0358451,12.265993 C11.0298336,12.2444365 11.0246398,12.2227461 11.0201652,12.2007941 C11.0167022,12.1833753 11.0136281,12.165949 11.0110178,12.1484669 C11.008101,12.1294204 11.005748,12.1096949 11.0039775,12.0898018 C11.001895,12.0659949 11.0006349,12.042681 11.0001861,12.0193545 C11.0000613,12.0129086 11,12.0064615 11,12 L11,8 C11,7.44771525 11.4477153,7 12,7 Z"/>
</svg>
