<svg xmlns="http://www.w3.org/2000/svg" viewBox="0 0 24 24">
  <path fill-rule="evenodd" d="M18,13 C19.1045695,13 20,13.8954305 20,15 L20,17 C20,18.1045695 19.1045695,19 18,19 L6,19 C4.8954305,19 4,18.1045695 4,17 L4,15 C4,13.8954305 4.8954305,13 6,13 L18,13 Z M17,15 L7,15 C6.44771525,15 6,15.4477153 6,16 C6,16.5128358 6.38604019,16.9355072 6.88337887,16.9932723 L7,17 L17,17 C17.5522847,17 18,16.5522847 18,16 C18,15.4477153 17.5522847,15 17,15 Z M18,5 C19.1045695,5 20,5.8954305 20,7 L20,9 C20,10.1045695 19.1045695,11 18,11 L6,11 C4.8954305,11 4,10.1045695 4,9 L4,7 C4,5.8954305 4.8954305,5 6,5 L18,5 Z M17,7 L7,7 C6.44771525,7 6,7.44771525 6,8 C6,8.51283584 6.38604019,8.93550716 6.88337887,8.99327227 L7,9 L17,9 C17.5522847,9 18,8.55228475 18,8 C18,7.44771525 17.5522847,7 17,7 Z"/>
</svg>
