<svg xmlns="http://www.w3.org/2000/svg" viewBox="0 0 24 24">
  <path fill-rule="evenodd" d="M21,19 C21,20.1045695 20.1045695,21 19,21 L5,21 C3.8954305,21 3,20.1045695 3,19 L3,5 C3,3.8954305 3.8954305,3 5,3 L19,3 C20.1045695,3 21,3.8954305 21,5 L21,19 Z M5,16 L5,18 C5,18.5128358 5.38604019,18.9355072 5.88337887,18.9932723 L6,19 L8,19 L8,16 L5,16 Z M14,16 L10,16 L10,19 L14,19 L14,16 Z M19,16 L16,16 L16,19 L18,19 C18.5128358,19 18.9355072,18.6139598 18.9932723,18.1166211 L19,18 L19,16 Z M14,10 L10,10 L10,14 L14,14 L14,10 Z M19,10 L16,10 L16,14 L19,14 L19,10 Z M14,5 L10,5 L10,8 L14,8 L14,5 Z M18,5 L16,5 L16,8 L19,8 L19,6 C19,5.44771525 18.5522847,5 18,5 Z M8,5 L6,5 C5.48716416,5 5.06449284,5.38604019 5.00672773,5.88337887 L5,6 L5,8 L8,8 L8,5 Z M5,14 L8,14 L8,10 L5,10 L5,14 Z"/>
</svg>
