<svg xmlns="http://www.w3.org/2000/svg" viewBox="0 0 24 24">
  <path fill-rule="evenodd" d="M18,4 C19.1045695,4 20,4.8954305 20,6 L20,18 C20,19.1045695 19.1045695,20 18,20 L6,20 C4.8954305,20 4,19.1045695 4,18 L4,6 C4,4.8954305 4.8954305,4 6,4 L18,4 Z M11,13 L6,13 L6,16 C6,17.0543618 6.81587779,17.9181651 7.85073766,17.9945143 L8,18 L11,18 L11,13 Z M18,13 L13,13 L13,18 L16,18 C17.0543618,18 17.9181651,17.1841222 17.9945143,16.1492623 L18,16 L18,13 Z M11,6 L8,6 C6.9456382,6 6.08183488,6.81587779 6.00548574,7.85073766 L6,8 L6,11 L11,11 L11,6 Z M16,6 L13,6 L13,11 L18,11 L18,8 C18,6.8954305 17.1045695,6 16,6 Z"/>
</svg>
