<svg xmlns="http://www.w3.org/2000/svg" viewBox="0 0 24 24">
  <path fill-rule="evenodd" d="M9,13 C10.1045695,13 11,13.8954305 11,15 L11,18 C11,19.1045695 10.1045695,20 9,20 L6,20 C4.8954305,20 4,19.1045695 4,18 L4,15 C4,13.8954305 4.8954305,13 6,13 L9,13 Z M18,13 C19.1045695,13 20,13.8954305 20,15 L20,18 C20,19.1045695 19.1045695,20 18,20 L15,20 C13.8954305,20 13,19.1045695 13,18 L13,15 C13,13.8954305 13.8954305,13 15,13 L18,13 Z M7.5,15 C6.67157288,15 6,15.6715729 6,16.5 C6,17.3284271 6.67157288,18 7.5,18 C8.32842712,18 9,17.3284271 9,16.5 C9,15.6715729 8.32842712,15 7.5,15 Z M16.5,15 C15.6715729,15 15,15.6715729 15,16.5 C15,17.3284271 15.6715729,18 16.5,18 C17.3284271,18 18,17.3284271 18,16.5 C18,15.6715729 17.3284271,15 16.5,15 Z M9,4 C10.1045695,4 11,4.8954305 11,6 L11,9 C11,10.1045695 10.1045695,11 9,11 L6,11 C4.8954305,11 4,10.1045695 4,9 L4,6 C4,4.8954305 4.8954305,4 6,4 L9,4 Z M18,4 C19.1045695,4 20,4.8954305 20,6 L20,9 C20,10.1045695 19.1045695,11 18,11 L15,11 C13.8954305,11 13,10.1045695 13,9 L13,6 C13,4.8954305 13.8954305,4 15,4 L18,4 Z M7.5,6 C6.67157288,6 6,6.67157288 6,7.5 C6,8.32842712 6.67157288,9 7.5,9 C8.32842712,9 9,8.32842712 9,7.5 C9,6.67157288 8.32842712,6 7.5,6 Z M16.5,6 C15.6715729,6 15,6.67157288 15,7.5 C15,8.32842712 15.6715729,9 16.5,9 C17.3284271,9 18,8.32842712 18,7.5 C18,6.67157288 17.3284271,6 16.5,6 Z"/>
</svg>
