<svg xmlns="http://www.w3.org/2000/svg" viewBox="0 0 24 24">
  <path fill-rule="evenodd" d="M18,5 C19.1045695,5 20,5.8954305 20,7 L20,17 C20,18.1045695 19.1045695,19 18,19 L6,19 C4.8954305,19 4,18.1045695 4,17 L4,7 C4,5.8954305 4.8954305,5 6,5 L18,5 Z M18,15 L6,15 L6,16 C6,16.5128358 6.38604019,16.9355072 6.88337887,16.9932723 L7,17 L17,17 C17.5522847,17 18,16.5522847 18,16 L18,16 L18,15 Z M18,11 L6,11 L6,13 L18,13 L18,11 Z M17,7 L7,7 C6.44771525,7 6,7.44771525 6,8 L6,8 L6,9 L18,9 L18,8 C18,7.48716416 17.6139598,7.06449284 17.1166211,7.00672773 L17,7 Z"/>
</svg>
